<?xml version="1.0" encoding="utf-8"?><!DOCTYPE svg PUBLIC "-//W3C//DTD SVG 1.1//EN" "http://www.w3.org/Graphics/SVG/1.1/DTD/svg11.dtd"><svg xmlns="http://www.w3.org/2000/svg" xmlns:xlink="http://www.w3.org/1999/xlink"><symbol viewBox="-89 94 20 13" id="arrow-left-dark"><path fill="#020203" d="M-86.568 99.492H-70v2.016h-16.568z"/><path fill="#020203" d="M-88 100.5l5.72-5.5 1.327 1.477-4.184 4.023 4.184 4.023L-82.28 106z"/></symbol><symbol viewBox="-89 94 20 13" id="arrow-left-white"><path fill="#FFF" d="M-86.568 99.492H-70v2.016h-16.568z"/><path fill="#FFF" d="M-88 100.5l5.72-5.5 1.327 1.477-4.184 4.023 4.184 4.023L-82.28 106z"/></symbol><symbol viewBox="-89 94 20 13" id="arrow-right-dark"><path fill="#020203" d="M-88 99.492h16.568v2.016H-88z"/><path fill="#020203" d="M-75.72 106l-1.327-1.477 4.184-4.023-4.184-4.023L-75.72 95l5.72 5.5z"/></symbol><symbol viewBox="-89 94 20 13" id="arrow-right-red"><path fill="#FD4722" d="M-88 99.492h16.568v2.016H-88z"/><path fill="#FD4722" d="M-75.72 106l-1.327-1.477 4.184-4.023-4.184-4.023L-75.72 95l5.72 5.5z"/></symbol><symbol viewBox="-89 94 20 13" id="arrow-right-white"><path fill="#FFF" d="M-88 99.492h16.568v2.016H-88z"/><path fill="#FFF" d="M-75.72 106l-1.327-1.477 4.184-4.023-4.184-4.023L-75.72 95l5.72 5.5z"/></symbol><symbol viewBox="-13 16 42 24" id="card-amex"><path fill="#6B6D6F" d="M-12 27.227h1.892l.43-1.075h.99l.43 1.075h3.785v-.817l.344.817h1.935l.345-.817v.817H7.57v-1.72h.172c.086 0 .136.022.15.065s.022.094.022.15v1.505h4.86v-.387c.545.287 1.175.423 1.893.408.716-.014 1.361-.021 1.935-.021l.43-1.075h.99l.43 1.075h3.957v-.989l.602.989h3.14v-6.575h-3.14v.774l-.43-.774h-3.183v.774l-.43-.774h-4.301c-.316 0-.639.03-.968.086-.33.058-.638.158-.925.301v-.387h-3.01v.387a1.515 1.515 0 0 0-.581-.3 2.61 2.61 0 0 0-.667-.087H-2.409l-.73 1.676-.775-1.676h-3.44v.774l-.388-.774h-2.925L-12 23.79V17h40v11.73h-2.065c-.258 0-.509.03-.752.086a1.884 1.884 0 0 0-.667.301v-.387h-3.054c-.23 0-.473.03-.73.086a1.508 1.508 0 0 0-.646.301v-.387h-5.462v.387a2.335 2.335 0 0 0-.753-.3 3.91 3.91 0 0 0-.796-.087H9.462v.387c-.172-.172-.423-.28-.752-.322a6.677 6.677 0 0 0-.839-.065H3.828l-.946 1.032-.86-1.032h-6.065v6.575h5.935l.947-1.032.903 1.032H7.44v-1.547h.344c.258 0 .523-.007.796-.022a1.87 1.87 0 0 0 .752-.193v1.762h3.054v-1.72h.13c.085 0 .142.016.171.044.029.03.043.086.043.172v1.504h9.204c.23 0 .487-.029.775-.086.286-.057.53-.157.73-.301v.387h2.926c.286 0 .572-.014.86-.043.286-.029.544-.115.774-.258V39h-40V27.227zm10.968-.946v-3.695l-1.635 3.695h-.989l-1.634-3.695v3.695h-2.28L-8 25.25h-2.366l-.43 1.031H-12l2.022-4.683h1.677l1.892 4.425v-4.425h1.85l1.462 3.18 1.334-3.18H.129v4.683h-1.161zm-8.172-3.867l-.731 1.848h1.548l-.817-1.848zM6.452 34.402H4.258l-1.42-1.59-1.419 1.59h-4.473v-4.726h4.516l1.42 1.547 1.42-1.547h3.612c.516 0 .96.115 1.333.344.373.229.56.63.56 1.203 0 .945-.402 1.447-1.205 1.504-.802.057-1.52.086-2.15.086v1.59zM.903 30.664h-2.838v.86H.559v.945h-2.494v.945H.86l1.248-1.375-1.205-1.375zm.043-4.383v-4.683h3.785v.988H2.108v.816h2.537v.989H2.108v.945H4.73v.945H.946zm4.344 3.91L3.57 32.04l1.72 1.934V30.19zm4.56-5.586c.085.202.128.46.128.774v.902H8.86c-.03-.486-.05-.887-.064-1.203-.015-.314-.338-.473-.968-.473H6.624v1.676H5.505v-4.683h2.667c.458 0 .882.072 1.269.215.387.143.58.487.58 1.03a1.43 1.43 0 0 1-.774 1.29c.315.115.516.272.602.472zm-3.398 6.06v1.202H7.87c.2 0 .372-.05.516-.15.143-.1.215-.265.215-.494 0-.2-.072-.344-.215-.43a.904.904 0 0 0-.473-.129H6.452zm.172-8.08v1.032h1.419c.172 0 .336-.035.495-.107.157-.072.236-.222.236-.451 0-.2-.079-.33-.236-.387a1.456 1.456 0 0 0-.495-.086h-1.42zm8.043 10.099c.086.2.129.459.129.773v.945h-1.119v-.773c0-.4-.079-.658-.236-.774-.158-.114-.423-.171-.796-.171h-1.204v1.718h-1.118v-4.726h2.666c.459 0 .882.072 1.27.215.386.143.58.5.58 1.074 0 .258-.065.502-.194.73-.129.23-.322.402-.58.516.314.115.516.272.602.473zm-4-6.403v-4.683h1.161v4.683h-1.161zm.774 4.383v1.074h1.42c.2 0 .372-.035.515-.107.143-.071.215-.222.215-.451s-.072-.372-.215-.43a1.278 1.278 0 0 0-.473-.086h-1.462zm12.129-4.383l-2.15-3.523v3.523h-2.28l-.473-1.031h-2.323l-.43 1.031h-1.29c-.775 0-1.341-.193-1.7-.58-.358-.387-.537-.967-.537-1.74s.186-1.36.56-1.762c.372-.4.96-.601 1.763-.601h1.075v.988c-.602 0-1.133.021-1.591.064-.46.043-.689.48-.689 1.31 0 .402.072.725.215.968.143.244.444.365.904.365h.516l1.591-3.695h1.678l1.892 4.425v-4.425h1.72L24 24.863v-3.265h1.161v4.683H23.57zm-8.086 8.121v-4.726h3.742v.988h-2.624v.86h2.58v.945h-2.58v.945h2.624v.988h-3.742zm2.064-11.988l-.774 1.848h1.549l-.775-1.848zm2.366 11.988v-1.03h2.194c.142 0 .271-.022.387-.065.114-.043.172-.164.172-.366 0-.486-.481-.636-1.441-.45-.961.186-1.441-.28-1.441-1.397 0-.488.157-.845.473-1.074a1.854 1.854 0 0 1 1.118-.344h2.28v.988H21.59c-.172 0-.322.03-.451.086-.13.058-.194.172-.194.344 0 .515.487.666 1.463.45.974-.214 1.462.237 1.462 1.354 0 .545-.172.932-.516 1.16-.344.23-.76.344-1.247.344h-2.194zm7.44-.129a2.988 2.988 0 0 1-.86.13h-2.193V33.37h2.194a.854.854 0 0 0 .387-.086c.114-.056.172-.172.172-.344 0-.486-.481-.636-1.441-.45-.961.186-1.441-.28-1.441-1.397 0-.488.157-.845.473-1.074a1.854 1.854 0 0 1 1.118-.344H28v.988h-2.022c-.172 0-.322.03-.451.086-.13.058-.194.172-.194.344 0 .43.358.58 1.076.45.716-.128 1.247.037 1.591.495v1.762c-.144.23-.359.386-.645.472z"/></symbol><symbol viewBox="-80 88 39 25" id="card-jcb"><path fill="#6F7173" d="M-75.767 107.936v-4.043c.029 0 .06.016.09.045l.988.18c.329.06.643.105.943.135.419.06.823.097 1.213.112.389.016.793.023 1.213.023.389-.03.786-.075 1.19-.135.405-.06.801-.164 1.19-.315.24-.09.465-.202.675-.337.209-.134.404-.306.584-.516.149-.21.27-.42.359-.63.09-.208.15-.432.18-.672.029-.12.045-.248.045-.382v-.427-2-1.998-.09-.09h-3.325V101.243a2.058 2.058 0 0 1-.36 1.168 1.88 1.88 0 0 1-.493.427c-.18.105-.39.187-.63.247-.15.03-.314.045-.493.045s-.36-.015-.54-.045a5.5 5.5 0 0 1-1.437-.27 12.5 12.5 0 0 1-1.347-.539h-.045v-.067-.068-4.67-4.628c0-.868.239-1.632.718-2.29.479-.66 1.123-1.124 1.932-1.393.24-.09.486-.142.741-.158.254-.014.501-.022.741-.022h5.301V108.07c0 .48-.075.929-.224 1.348-.15.42-.375.808-.674 1.168-.3.36-.637.651-1.011.876a3.256 3.256 0 0 1-1.28.426c-.09.03-.196.052-.315.068-.12.015-.24.022-.36.022h-5.57v-4.043zm10.646-4.761c.299.24.629.434.988.584.36.15.734.27 1.123.359.45.12.906.195 1.37.225.464.03.921.045 1.37.045a34.42 34.42 0 0 0 2.516-.27 15.947 15.947 0 0 0 .808-.18c.03 0 .06-.007.09-.022a.2.2 0 0 1 .09-.023v-.808-.809a.2.2 0 0 0-.09.023.194.194 0 0 1-.09.022c-.3.15-.606.285-.92.404-.315.12-.637.21-.966.27-.27.06-.54.098-.809.112-.27.016-.524.023-.763.023-.24-.03-.472-.068-.696-.113s-.427-.127-.607-.247c-.3-.15-.547-.343-.741-.584a2.31 2.31 0 0 1-.427-.808 3.108 3.108 0 0 1-.135-.898c0-.299.045-.599.135-.899.12-.419.307-.755.562-1.01.254-.254.576-.442.966-.562a3.726 3.726 0 0 1 1.617-.18 6.916 6.916 0 0 1 2.83.809h.134v-.786-.831a.822.822 0 0 1-.404-.09c-.3-.03-.6-.074-.899-.135-.3-.06-.6-.104-.898-.135-.36-.06-.734-.09-1.123-.09h-1.168c-.3.03-.606.061-.92.09-.315.03-.623.09-.921.18-.33.06-.645.15-.944.27-.3.12-.584.285-.853.494a.695.695 0 0 1-.113.09c-.045.03-.097.06-.157.09v-.09-2.426-2.426c0-.838.225-1.579.674-2.224a3.913 3.913 0 0 1 1.797-1.415c.24-.09.472-.149.696-.18a5.37 5.37 0 0 1 .696-.044h5.57V108.027c0 .269-.022.546-.067.83a3.329 3.329 0 0 1-.247.831c-.27.6-.645 1.085-1.123 1.46a3.851 3.851 0 0 1-1.707.741c-.09.03-.196.052-.315.068-.12.015-.224.022-.314.022h-5.66v-4.402-4.402h.045zm10.556-6.469v-.09-1.864-1.864c0-.599.113-1.145.337-1.64s.562-.935 1.01-1.325c.27-.27.577-.478.922-.629.344-.15.696-.239 1.055-.27.12-.029.232-.044.337-.044h5.773V108.07c0 .6-.106 1.146-.315 1.64-.21.494-.539.935-.988 1.325-.27.24-.57.434-.898.584-.33.15-.674.24-1.034.27a2.971 2.971 0 0 1-.719.09H-54.564v-3.909-3.908h5.84c.24 0 .472-.015.696-.045.225-.03.442-.09.652-.18.18-.09.343-.186.494-.292.15-.104.284-.247.404-.426.24-.33.337-.734.292-1.213-.045-.478-.277-.853-.696-1.123-.18-.119-.36-.217-.54-.292a2.444 2.444 0 0 0-.583-.157c-.06-.03-.112-.045-.157-.045s-.098-.015-.158-.045l.36-.09c.119-.03.239-.074.36-.135.269-.119.485-.284.65-.494a1.79 1.79 0 0 0 .337-.763c.03-.33-.015-.652-.134-.966-.12-.315-.345-.562-.674-.741a1.712 1.712 0 0 0-.562-.247 7.508 7.508 0 0 0-.606-.113h-.854a46.604 46.604 0 0 0-2.47-.022c-.809.015-1.633.022-2.471.022h-.18v-.09zm1.887 2.157v-.899h2.021c.12 0 .24.016.36.045.119.03.224.09.314.18.12.12.202.27.247.449s.037.36-.022.54a.828.828 0 0 1-.315.426.84.84 0 0 1-.494.157H-52.678v-.898zm0 3.1v-.989c.03-.03.052-.045.067-.045h2.134c.27 0 .494.075.674.225.18.15.299.344.36.584.059.3.014.554-.135.763a.998.998 0 0 1-.584.404c-.061 0-.12.008-.18.023a.587.587 0 0 1-.135.022H-52.678v-.988z"/></symbol><symbol viewBox="-80 89 39 24" id="card-maestro"><path fill="#7E7E7E" d="M-53.623 89.769c-4.653.357-8.758 3.35-10.16 7.88-1.391 4.497.236 9.538 4.007 12.359 3.783 2.83 9.118 2.97 13.032.314 3.886-2.637 5.793-7.55 4.619-12.113-1.157-4.495-5.112-7.921-9.735-8.393a13.793 13.793 0 0 0-1.763-.047z"/><path fill="#848483" d="M-68.54 89.769c-4.658.358-8.767 3.348-10.177 7.88-1.401 4.5.24 9.542 4.017 12.359 3.787 2.823 9.12 2.975 13.036.314 3.885-2.64 5.761-7.556 4.601-12.113-1.143-4.494-5.097-7.922-9.714-8.393a13.786 13.786 0 0 0-1.762-.047z"/><path fill="#7E7E7E" d="M-61.336 93.409l-.55.628h5.702v-.628zM-62.381 94.743l-.4.625h6.598v-.625zM-63.143 96.092l-.308.629h7.268v-.63zM-63.694 97.426l-.192.626h7.702v-.626zM-64.056 98.757l-.114.628h7.987v-.628zM-64.285 101.34l.056.629h8.046v-.63zM-64.152 102.748l.114.63h7.855v-.63zM-63.85 103.891l.194.628h7.473v-.628zM-63.39 105.28l.302.628h6.905v-.628zM-62.706 106.689l.42.628h6.103v-.628zM-61.83 108.041l.55.627h5.041v-.627zM-43.195 107.46a.609.609 0 0 0-.433.427h.11a.44.44 0 0 1 .855 0h.114a.567.567 0 0 0-.646-.426z"/><path fill="#7E7E7E" d="M-43.28 107.753v.133h.094v-.075c.1-.027.185-.004.23.075h.096c-.078-.142-.24-.18-.42-.133zM-43.628 107.886a5.286 5.286 0 0 1-.007.096h.106a.828.828 0 0 1 .012-.096h-.111zM-42.956 107.886v.025a.07.07 0 0 1-.018.034.477.477 0 0 1-.212.018v-.077h-.095v.096h.388l.012-.01a.19.19 0 0 0 .021-.086h-.096zM-42.663 107.886c.005.032.009.064.01.096h.115a3.407 3.407 0 0 1-.011-.096h-.114zM-42.653 107.983c.01.613-.884.611-.877 0h-.106c-.015.71 1.1.716 1.097 0h-.114z"/><path fill="#7E7E7E" d="M-43.28 107.983v.229h.094v-.19h.098l.114.19h.096l-.137-.19a.177.177 0 0 0 .122-.04h-.388z"/><path fill="#FFF" d="M-55.478 100.032c-.457-.033-2.85-.243-1.927.791.28.314.858.317 1.213.517.498.282.675.716.67 1.276-.014 1.21-.93 1.81-2.043 1.894-.77.057-1.636.044-2.366-.239l.23-1.16c.586.151 1.943.557 2.384-.002.535-.679-.535-.92-.955-1.118-1.458-.685-1.211-2.728.307-3.149.87-.24 1.872-.145 2.753-.007l-.266 1.197z"/><path fill="none" stroke="#FFF" stroke-width=".107" d="M-55.478 100.032c-.457-.033-2.85-.243-1.927.791.28.314.858.317 1.213.517.498.282.675.716.67 1.276-.014 1.21-.93 1.81-2.043 1.894-.77.057-1.636.044-2.366-.239l.23-1.16c.586.151 1.943.557 2.384-.002.535-.679-.535-.92-.955-1.118-1.458-.685-1.211-2.728.307-3.149.87-.24 1.872-.145 2.753-.007l-.266 1.197z"/><path fill="#FFF" d="M-54.262 97.56h1.486l-.229 1.293h.913l-.207 1.18-.935-.02c-.134.803-1.313 4.105.628 3.268l-.15 1.008c-.728.402-2.428.479-2.526-.576-.078-.84.288-1.861.427-2.676l.593-3.478z"/><path fill="none" stroke="#FFF" stroke-width=".107" d="M-54.262 97.56h1.486l-.229 1.293h.913l-.207 1.18-.935-.02c-.134.803-1.313 4.105.628 3.268l-.15 1.008c-.728.402-2.428.479-2.526-.576-.078-.84.288-1.861.427-2.676l.593-3.478z"/><path fill="#FFF" d="M-63.295 102.046c-.386 1.73 2.46 1.362 3.25.876l-.23 1.312c-1.7.938-4.421.074-4.579-2.01-.163-2.163 1.61-4.116 3.875-3.35 1.438.485 1.323 1.952 1.103 3.191h-3.84l.23-1.028h2.302c.085-.668-.338-1.257-1.059-1.1-.906.196-.918 1.398-1.052 2.11z"/><path fill="none" stroke="#FFF" stroke-width=".107" d="M-63.295 102.046c-.386 1.73 2.46 1.362 3.25.876l-.23 1.312c-1.7.938-4.421.074-4.579-2.01-.163-2.163 1.61-4.116 3.875-3.35 1.438.485 1.323 1.952 1.103 3.191h-3.84l.23-1.028h2.302c.085-.668-.338-1.257-1.059-1.1-.906.196-.918 1.398-1.052 2.11z"/><path fill="#FFF" d="M-65.349 103.34l-.211 1.18h-1.334c.024-.213.051-.427.114-.63-.803.96-2.871 1.058-3.304-.3-.5-1.565.939-2.511 2.285-2.641.45-.044.892-.047 1.344-.026.56-1.378-2.265-.917-2.852-.625l.38-1.256c.856-.431 2.376-.448 3.233-.04 1.636.78.608 3.014.345 4.338z"/><path fill="none" stroke="#FFF" stroke-width=".107" d="M-65.349 103.34l-.211 1.18h-1.334c.024-.213.051-.427.114-.63-.803.96-2.871 1.058-3.304-.3-.5-1.565.939-2.511 2.285-2.641.45-.044.892-.047 1.344-.026.56-1.378-2.265-.917-2.852-.625l.38-1.256c.856-.431 2.376-.448 3.233-.04 1.636.78.608 3.014.345 4.338z"/><path fill="#848483" d="M-66.625 101.95l-.004-.03c-.578-.254-2.283.262-1.85 1.16.238.495 1.084.28 1.424-.015.327-.284.357-.712.43-1.115z"/><path fill="#FFF" d="M-76.504 104.52h-1.446l1.216-6.96h2.514l.247 4.142 1.712-4.143h2.61l-1.22 6.96h-1.446l.913-5.212h-.056l-2.15 5.212h-1.619c-.121-1.735-.208-3.475-.303-5.212h-.074.015l-.913 5.212z"/><path fill="none" stroke="#FFF" stroke-width=".107" d="M-76.504 104.52h-1.446l1.216-6.96h2.514l.247 4.142 1.712-4.143h2.61l-1.22 6.96h-1.446l.913-5.212h-.056l-2.15 5.212h-1.619c-.121-1.735-.208-3.475-.303-5.212h-.074.015l-.913 5.212z"/><path fill="#FFF" d="M-52.358 104.52h1.504c.188-1.1.191-2.454.639-3.487.259-.6.88-.838 1.512-.754.1-.52.27-1.016.551-1.467h-.008c-.811-.213-1.452.386-1.877.991l.173-.95-1.504-.019-.99 5.685z"/><path fill="none" stroke="#FFF" stroke-width=".107" d="M-52.358 104.52h1.504c.188-1.1.191-2.454.639-3.487.259-.6.88-.838 1.512-.754.1-.52.27-1.016.551-1.467h-.008c-.811-.213-1.452.386-1.877.991l.173-.95-1.504-.019-.99 5.685z"/><path fill="#FFF" d="M-45.85 98.776c1.212.018 2.326.595 2.673 1.822.337 1.19-.024 2.71-1.05 3.46-.929.678-2.385.757-3.393.21-1.147-.624-1.456-1.998-1.187-3.201.322-1.438 1.503-2.292 2.957-2.291z"/><path fill="none" stroke="#FFF" stroke-width=".107" d="M-45.85 98.776c1.212.018 2.326.595 2.673 1.822.337 1.19-.024 2.71-1.05 3.46-.929.678-2.385.757-3.393.21-1.147-.624-1.456-1.998-1.187-3.201.322-1.438 1.503-2.292 2.957-2.291z"/><path fill="#FFF" d="M-43.639 104.234v.056h.17v.362h.096v-.362h.17v-.056z"/><path fill="none" stroke="#FFF" stroke-width=".107" d="M-43.64 104.234h.437v.055h-.17v.362h-.096v-.362h-.17z"/><path fill="#FFF" d="M-42.708 104.234l-.151.321-.156-.32h-.132v.417h.095v-.322l.152.322h.078l.15-.322v.322h.097v-.418z"/><path fill="none" stroke="#FFF" stroke-width=".107" d="M-43.148 104.234h.133l.155.322.152-.322h.133v.417h-.097v-.32l-.15.32h-.078l-.153-.32v.32h-.095z"/><path fill="#7E7E7E" d="M-47.028 101.492c-.091.684-.029 1.587.839 1.619.87.031 1.222-.87 1.311-1.596.248-1.997-1.9-1.725-2.15-.023z"/></symbol><symbol viewBox="-79 89 40 24" id="card-mastercard"><path fill="#CBCBCB" d="M-52.057 89.773c-4.648.341-8.744 3.364-10.139 7.876-1.39 4.499.229 9.53 4 12.356 3.785 2.835 9.096 2.957 13.015.314 3.89-2.623 5.785-7.56 4.619-12.11-1.152-4.493-5.119-7.918-9.736-8.39a13.724 13.724 0 0 0-1.759-.046z"/><path fill="#7E7E7E" d="M-67.1 89.773c-4.656.342-8.769 3.357-10.178 7.876-1.406 4.508.25 9.53 4.019 12.356 3.777 2.833 9.107 2.962 13.015.314 3.88-2.63 5.766-7.563 4.6-12.11-1.15-4.483-5.081-7.918-9.698-8.39-.586-.06-1.17-.061-1.758-.046z"/><path fill="#CBCBCB" d="M-59.8 93.459l-.515.61h5.973v-.61zM-60.85 94.816l-.36.61h6.867v-.61zM-61.612 96.17l-.266.611h7.535v-.61zM-62.148 97.528l-.189.61h7.994v-.61zM-62.26 104.088l.19.611h7.746v-.61zM-61.783 105.447l.284.61h7.175v-.61zM-61.077 106.8l.382.61h6.372v-.61zM-60.122 108.154l.535.615h5.263v-.615zM-62.489 98.882l-.117.61h8.263v-.61zM-57.456 102.735l-.114.61h3.151v-.61zM-57.206 101.377l-.114.615h2.9v-.615zM-62.814 101.377l.038.615h.78v-.615z"/><path fill="#FFF" d="M-64.344 100.637c-.343-.043-.84-.173-1.179-.033-.72.3-.086.653.32.824 1.59.669.613 2.344-.79 2.413-.5.025-1.066.02-1.536-.174l.17-.837c.456.121 1.803.496 1.784-.319l-.035-.095c-.354-.385-.991-.335-1.299-.804-.281-.43-.17-1.17.192-1.536.59-.595 1.809-.441 2.567-.295l-.194.856z"/><path fill="none" stroke="#FFF" stroke-width=".108" stroke-miterlimit="2.613" d="M-64.344 100.637c-.343-.043-.84-.173-1.179-.033-.72.3-.086.653.32.824 1.59.669.613 2.344-.79 2.413-.5.025-1.066.02-1.536-.174l.17-.837c.456.121 1.803.496 1.784-.319l-.035-.095c-.354-.385-.991-.335-1.299-.804-.281-.43-.17-1.17.192-1.536.59-.595 1.809-.441 2.567-.295l-.194.856z"/><path fill="#FFF" d="M-63.444 98.844h1.05l-.155.918h.634l-.137.857-.668-.019c-.122.707-.414 1.545-.35 2.256.204.213.549.191.809.087l-.132.706c-.47.3-1.595.337-1.789-.287-.13-.415.143-1.121.211-1.511l.527-3.007z"/><path fill="none" stroke="#FFF" stroke-width=".108" stroke-miterlimit="2.613" d="M-61.077 102.048c-.222 1.222 1.74 1.004 2.324.63l-.152.933c-1.007.546-2.787.22-3.18-.933-.552-1.622.814-3.41 2.557-2.932 1.175.322.963 1.37.908 2.321h-2.764l.174-.747h1.66c.062-.483-.31-.91-.815-.765-.608.176-.619 1.007-.712 1.493zm-2.367-3.204h1.05l-.155.918h.634l-.137.857-.668-.019c-.122.707-.414 1.545-.35 2.256.204.213.549.191.809.087l-.132.706c-.47.3-1.595.337-1.789-.287-.13-.415.143-1.121.211-1.511l.527-3.007z"/><path fill="#FFF" d="M-52.034 99.99c-1.204-.657-2.45-.092-2.652 1.318-.17 1.187 1.278 2.153 2.212 1.214l-.17 1.013c-.415.396-1.292.348-1.795.222-1.073-.268-1.544-1.302-1.444-2.336.13-1.347.864-2.528 2.274-2.717a3.5 3.5 0 0 1 1.765.235l-.19 1.05z"/><path fill="none" stroke="#FFF" stroke-width=".108" stroke-miterlimit="2.613" d="M-52.034 99.99c-1.204-.657-2.45-.092-2.652 1.318-.17 1.187 1.278 2.153 2.212 1.214l-.17 1.013c-.415.396-1.292.348-1.795.222-1.073-.268-1.544-1.302-1.444-2.336.13-1.347.864-2.528 2.274-2.717a3.5 3.5 0 0 1 1.765.235l-.19 1.05z"/><path fill="#FFF" d="M-42.697 103.823h-1.05a5.13 5.13 0 0 0 .076-.46c-.258.345-.663.52-1.088.517-1.079-.01-1.511-1.126-1.39-2.06.121-.923.743-1.902 1.73-2.04.503-.069 1.037.101 1.282.574l.266-1.491h1.03l-.856 4.96z"/><path fill="none" stroke="#FFF" stroke-width=".108" stroke-miterlimit="2.613" d="M-42.697 103.823h-1.05a5.13 5.13 0 0 0 .076-.46c-.258.345-.663.52-1.088.517-1.079-.01-1.511-1.126-1.39-2.06.121-.923.743-1.902 1.73-2.04.503-.069 1.037.101 1.282.574l.266-1.491h1.03l-.856 4.96z"/><path fill="#CBCBCB" d="M-44.415 102.906c.826-.029 1.471-1.545.772-2.102-.914-.73-1.866 1.521-.924 2.072l.152.03z"/><path fill="#FFF" d="M-67.703 102.981l-.152.842h-.956c.023-.153.048-.307.076-.459-.7.842-2.404.67-2.423-.588-.021-1.426 1.585-1.601 2.654-1.532.468-.96-1.652-.628-2.044-.436l.27-.914c.597-.257 1.546-.294 2.157-.087 1.384.47.614 2.152.418 3.174z"/><path fill="none" stroke="#FFF" stroke-width=".108" stroke-miterlimit="2.613" d="M-67.703 102.981l-.152.842h-.956c.023-.153.048-.307.076-.459-.7.842-2.404.67-2.423-.588-.021-1.426 1.585-1.601 2.654-1.532.468-.96-1.652-.628-2.044-.436l.27-.914c.597-.257 1.546-.294 2.157-.087 1.384.47.614 2.152.418 3.174z"/><path fill="#7E7E7E" d="M-68.617 101.991l-.004-.019-.015-.019c-.41-.104-1.884.34-1.236.952.601.568 1.186-.496 1.255-.914z"/><path fill="#FFF" d="M-75.682 103.823h-1.031l.86-4.98h1.794l.17 2.955 1.242-2.954h1.873l-.88 4.979h-1.032l.653-3.72h-.042l-1.544 3.72h-1.163c-.064-1.24-.161-2.48-.214-3.72h-.056l-.63 3.72z"/><path fill="none" stroke="#FFF" stroke-width=".108" stroke-miterlimit="2.613" d="M-75.682 103.823h-1.031l.86-4.98h1.794l.17 2.955 1.242-2.954h1.873l-.88 4.979h-1.032l.653-3.72h-.042l-1.544 3.72h-1.163c-.064-1.24-.161-2.48-.214-3.72h-.056l-.63 3.72z"/><path fill="#FFF" d="M-48.881 102.981l-.156.842h-.952c.004-.146.01-.293.019-.439-.708.827-2.328.623-2.348-.608-.024-1.437 1.576-1.596 2.652-1.532.353-.986-1.61-.65-2.041-.436l.266-.914c.593-.255 1.53-.292 2.139-.087 1.4.473.626 2.141.42 3.174z"/><path fill="#FFF" d="M-49.038 103.85l.018-.005.005-.019-.023.024zm-.023-.03l.023-.023v.053l.023-.024.156-.84-.046-.008-.156.842z"/><path fill="#FFF" d="M-49.99 103.797l.024.026h-.046l-.003.027h.978v-.053h-.952z"/><path fill="#FFF" d="M-50.001 103.429c-.002.131-.005.262-.01.394h.045a3.76 3.76 0 0 0 .01-.425l-.03-.027-.015.058zm.015-.058l-.003-.002.003.002zm0 0l.035.027-.034-.03-.001.003z"/><path fill="#FFF" d="M-50.039 103.425a1.628 1.628 0 0 1-1.38.413l-.008.046c.509.095 1.134-.087 1.475-.486l-.037-.03-.05.057z"/><path fill="#FFF" d="M-52.344 102.735c.005.585.319 1.043.917 1.149l.008-.046c-.56-.108-.894-.537-.873-1.103h-.052zM-50.983 101.279c-.745.106-1.34.687-1.361 1.456h.053c-.016-.74.61-1.307 1.308-1.41v-.046z"/><path fill="#FFF" d="M-50.243 101.199c-.247.02-.495.047-.74.08v.046c.258-.036.52-.068.78-.073v-.053h-.04zM-50.202 101.199v.053c.185.001.37.006.554.019l.004-.022-.046-.008.023-.02c-.178-.012-.356-.02-.535-.022zM-49.606 100.998h-.049a1.226 1.226 0 0 1-.035.243l.046.008a5.41 5.41 0 0 0 .042-.251h-.004z"/><path fill="#FFF" d="M-50.104 100.577v.049c.229.002.411.147.452.372h.046c-.032-.255-.246-.417-.498-.424v.003zM-50.441 100.566c-.42.02-.899.035-1.281.223l.038.024-.046-.01.038.024c.468-.228 1.08-.222 1.589-.204v-.046a8.19 8.19 0 0 0-.338-.011z"/><path fill="#FFF" d="M-51.461 99.876l-.003.015.015-.02-.012.005zm.012-.005l-.015.02-.266.913.046.008.266-.914-.016.019-.015-.046z"/><path fill="#FFF" d="M-50.142 99.686c-.438-.005-.897.015-1.308.185l.016.046c.523-.226 1.117-.18 1.672-.174v-.045a5.163 5.163 0 0 0-.38-.012zM-48.461 100.983c.165-.778-.628-1.247-1.301-1.285v.045c.64.038 1.42.487 1.255 1.233l.046.007z"/><path fill="#FFF" d="M-48.552 100.968l.046.007-.307 2.018-.046-.007z"/><path fill="#CBCBCB" d="M-49.8 101.991l-.007-.023-.015-.018c-.414-.106-1.885.367-1.208.965.602.531 1.197-.48 1.23-.924z"/><path fill="#FFF" d="M-41.563 102.802a.539.539 0 0 0-.426.502h.111c.03-.538.82-.542.838 0h.114a.539.539 0 0 0-.637-.502z"/><path fill="#FFF" d="M-41.646 103.076v.229h.095v-.15a.976.976 0 0 1 .193.008l.023.016c.01.018.014.04.01.06-.022.044-.063.066-.113.066h.16a.147.147 0 0 0-.015-.191.671.671 0 0 0-.353-.038zM-41.04 103.305c.028.591-.852.593-.838 0h-.11c-.023.714 1.088.713 1.062 0h-.114z"/><path fill="#FFF" d="M-41.439 103.305a.788.788 0 0 1-.113.003v-.003h-.095v.23h.095v-.19h.094l.113.19h.077l-.113-.19a.121.121 0 0 0 .102-.04h-.16z"/><path fill="none" stroke="#FFF" stroke-width=".108" stroke-miterlimit="2.613" d="M-41.457 103.766c.545-.026.552-.88 0-.88-.552.001-.544.853 0 .88zm0-.459c.058.002.106-.02.133-.068a.092.092 0 0 0-.012-.06.585.585 0 0 0-.022-.016.892.892 0 0 0-.193-.007v.151h.094zm-.094.228h-.095v-.459a.42.42 0 0 1 .387.083.149.149 0 0 1-.046.171.183.183 0 0 1-.076.015l.114.19h-.076l-.114-.19h-.094v.19zm-.44-.209c.022-.686 1.07-.69 1.069 0-.002.689-1.049.686-1.07 0z"/><path fill="#FFF" d="M-48.597 103.823h1.07c.183-1.032.058-3.184 1.603-3.13l.17-.973c-.517.01-.9.316-1.182.728l.114-.686h-1.066l-.71 4.06z"/><path fill="none" stroke="#FFF" stroke-width=".108" stroke-miterlimit="2.613" d="M-48.597 103.823h1.07c.183-1.032.058-3.184 1.603-3.13l.17-.973c-.517.01-.9.316-1.182.728l.114-.686h-1.066l-.71 4.06z"/><path fill="#FFF" d="M-58.64 103.823h1.089c.142-.841.034-3.296 1.528-3.034.085-.377.186-.726.402-1.05-.603-.101-1.033.243-1.357.709l.136-.686h-1.088l-.71 4.06z"/><path fill="none" stroke="#FFF" stroke-width=".108" stroke-miterlimit="2.613" d="M-58.64 103.823h1.089c.142-.841.034-3.296 1.528-3.034.085-.377.186-.726.402-1.05-.603-.101-1.033.243-1.357.709l.136-.686h-1.088l-.71 4.06z"/><path fill="#CBCBCB" d="M-41.563 107.403a.516.516 0 0 0-.417.41h.11a.423.423 0 0 1 .826 0h.11c-.059-.292-.34-.458-.629-.41z"/><path fill="#CBCBCB" d="M-41.439 107.68h-.208v.132h.095v-.075a.96.96 0 0 1 .193.007l.023.015c.01.016.014.035.011.053h.076c-.015-.1-.084-.145-.19-.132zM-41.98 107.813l-.011.083h.114l.007-.083h-.11zM-41.324 107.813v.008a.078.078 0 0 1-.015.03.356.356 0 0 1-.213.038v-.076h-.094v.083h.36a.111.111 0 0 0 .038-.083h-.076zM-41.043 107.813l.007.083h.114l-.011-.083h-.11z"/><path fill="#CBCBCB" d="M-41.036 107.895c.002.581-.845.581-.841 0h-.114c.006.703 1.069.704 1.068 0h-.113z"/><path fill="#CBCBCB" d="M-41.646 107.895v.22h.095v-.189h.094l.113.19h.077l-.113-.19a.13.13 0 0 0 .094-.03h-.36z"/><path fill="#FFF" d="M-59.55 101.32h-1.386l.002-.003-.003-.001c.126-.95 1.524-1.047 1.387.004zm1.028-.35c-.073-1.023-1.013-1.395-1.922-1.26-1.034.153-1.62.955-1.722 1.955-.18 1.76 1.779 2.75 3.261 1.946l.151-.933c-.587.382-2.508.594-2.327-.611h2.46c.024-.37.118-.722.1-1.096z"/></symbol><symbol viewBox="0 0 48.9391251 22.0708008" id="card-visa"><path fill="#BABCBE" d="M9.241 2.433l1.303 6.603c-.78-2.126-1.97-3.78-3.571-4.964C5.37 2.89 3.536 2.028 1.47 1.49l.045-.27h6.02c.418 0 .778.084 1.077.248.3.165.51.487.63.966z"/><path fill="#6F7173" d="M10.903 11.058l3.64-9.838h3.952L12.61 15.595H8.702L5.648 4.14c1.078.449 2.058 1.116 2.942 1.999.883.883 1.534 1.85 1.954 2.897l.36 2.022zM21.415 15.64h-3.773l2.336-14.42h3.728zM31.567.95c.719 0 1.362.068 1.932.202a9.318 9.318 0 0 1 1.392.427l-.494 3.1-.36-.18a6.38 6.38 0 0 0-1.167-.382 6.995 6.995 0 0 0-1.573-.157c-.749 0-1.295.135-1.64.404-.344.27-.516.555-.516.854 0 .33.187.629.562.898.374.27.876.57 1.505.899 1.078.51 1.87 1.078 2.38 1.707.51.629.764 1.363.764 2.2 0 1.499-.592 2.697-1.774 3.595-1.184.899-2.748 1.333-4.695 1.303-.838 0-1.632-.074-2.38-.225-.749-.15-1.348-.329-1.797-.539l.54-3.235.493.27c.598.27 1.145.457 1.64.561.494.106 1.115.158 1.864.158.539 0 1.04-.113 1.505-.337.464-.225.696-.577.696-1.056 0-.299-.135-.584-.404-.854s-.78-.584-1.528-.943c-.69-.329-1.4-.8-2.134-1.415-.734-.613-1.1-1.444-1.1-2.493 0-1.407.584-2.553 1.752-3.437C28.198 1.393 29.71.95 31.567.95zM44.46 1.22h-2.875c-.45 0-.84.083-1.168.247-.33.165-.6.487-.809.966L34.083 15.64h3.908c.329-.898.598-1.617.808-2.156H43.561c.12.6.27 1.318.45 2.156h3.458L44.46 1.22zm-2.988 9.299h-1.64c.42-1.108.928-2.456 1.528-4.043-.03.03.022-.12.157-.45.135-.329.247-.629.337-.898l.225 1.213c.359 1.737.658 3.13.898 4.178h-1.505z"/><path fill="#6F7173" d="M44.55 11.103v.314h-.135v-.314h.224c.03 0 .06.007.09.022.03.016.045.038.045.067l-.135.135.135.09h-.135v-.09h-.09v-.135h.09v-.09h-.09z"/></symbol><symbol viewBox="0 0 48.9391251 22.0708008" id="card-visa-electron"><path fill="#BABCBE" d="M9.241 2.433l1.303 6.603c-.78-2.126-1.97-3.78-3.571-4.964C5.37 2.89 3.536 2.028 1.47 1.49l.045-.27h6.02c.418 0 .778.084 1.077.248.3.165.51.487.63.966z"/><path fill="#6F7173" d="M10.903 11.058l3.64-9.838h3.952L12.61 15.595H8.702L5.648 4.14c1.078.449 2.058 1.116 2.942 1.999.883.883 1.534 1.85 1.954 2.897l.36 2.022zM21.415 15.64h-3.773l2.336-14.42h3.728zM19.843 16.718l-.54 4.313h2.247v-.584h-1.572l.09-1.348h1.257l.09-.539h-1.213l.225-1.258h1.572v-.584zM22.898 20.447l.539-3.729h-.674l-.54 4.313h2.247l.135-.584zM31.567.95c.719 0 1.362.068 1.932.202a9.318 9.318 0 0 1 1.392.427l-.494 3.1-.36-.18a6.38 6.38 0 0 0-1.167-.382 6.995 6.995 0 0 0-1.573-.157c-.749 0-1.295.135-1.64.404-.344.27-.516.555-.516.854 0 .33.187.629.562.898.374.27.876.57 1.505.899 1.078.51 1.87 1.078 2.38 1.707.51.629.764 1.363.764 2.2 0 1.499-.592 2.697-1.774 3.595-1.184.899-2.748 1.333-4.695 1.303-.838 0-1.632-.074-2.38-.225-.749-.15-1.348-.329-1.797-.539l.54-3.235.493.27c.598.27 1.145.457 1.64.561.494.106 1.115.158 1.864.158.539 0 1.04-.113 1.505-.337.464-.225.696-.577.696-1.056 0-.299-.135-.584-.404-.854s-.78-.584-1.528-.943c-.69-.329-1.4-.8-2.134-1.415-.734-.613-1.1-1.444-1.1-2.493 0-1.407.584-2.553 1.752-3.437C28.198 1.393 29.71.95 31.567.95zM25.727 16.718l-.584 4.313h2.246l.135-.584h-1.707l.225-1.348h1.257l.09-.539h-1.213l.09-1.258h1.572l.135-.584zM29.096 17.302c-.24.21-.42.45-.539.719-.12.27-.21.555-.27.854-.06.749.052 1.31.338 1.684.284.375.74.562 1.37.562.239 0 .449-.023.629-.068s.343-.127.494-.247v-.808c-.18.18-.367.322-.562.426-.195.106-.382.158-.561.158s-.345-.045-.494-.135a1.285 1.285 0 0 1-.405-.405 1.06 1.06 0 0 1-.224-.516 2.34 2.34 0 0 1 0-.651c.06-.569.224-.996.494-1.28.27-.285.629-.428 1.078-.428.15 0 .299.039.45.113.149.075.298.187.448.337l.36-.54a1.488 1.488 0 0 0-.517-.336 1.694 1.694 0 0 0-.606-.113c-.27 0-.533.053-.786.158a1.882 1.882 0 0 0-.697.516zM32.376 16.718l-.135.584h1.258l-.584 3.729h.673l.45-3.729h1.347l.135-.584zM37.946 18.964c.15-.119.284-.284.404-.494.09-.209.15-.41.18-.606a.921.921 0 0 0-.09-.562.832.832 0 0 0-.314-.427c-.15-.104-.345-.157-.584-.157h-1.348l-.584 4.313h.584l.225-1.797h.359l.988 1.797h.674l-.988-1.797c.18-.06.343-.15.494-.27zm-1.393-.314l.225-1.348h.674c.239 0 .382.083.426.247.045.165-.022.427-.202.786l-.449.315h-.674zM42.775 17.19c-.285-.374-.757-.562-1.415-.562-.54 0-.988.188-1.348.562-.36.375-.614.936-.763 1.685-.03.3-.016.583.045.853.06.27.18.51.359.719.15.24.337.412.561.516.225.106.456.158.697.158.568 0 1.033-.187 1.392-.562.36-.374.614-.935.764-1.684.09-.749-.008-1.31-.292-1.685zm-.247 1.685c-.09.6-.27 1.048-.54 1.347-.269.3-.628.45-1.077.45a.942.942 0 0 1-.494-.135 1.285 1.285 0 0 1-.405-.405 3.56 3.56 0 0 1-.202-.606 1.855 1.855 0 0 1-.022-.651c.09-.6.261-1.048.516-1.348.254-.299.607-.45 1.056-.45.209 0 .389.046.539.135.15.09.284.225.404.405.09.21.158.42.202.629.045.21.052.42.023.629zM44.46 1.22h-2.875c-.45 0-.84.083-1.168.247-.33.165-.6.487-.809.966L34.083 15.64h3.908c.329-.898.598-1.617.808-2.156H43.561c.12.6.27 1.318.45 2.156h3.458L44.46 1.22zm-2.988 9.299h-1.64c.42-1.108.928-2.456 1.528-4.043-.03.03.022-.12.157-.45.135-.329.247-.629.337-.898l.225 1.213c.359 1.737.658 3.13.898 4.178h-1.505zM47.47 16.718h-.585l-.539 3.19-1.482-3.19h-.54l-.673 4.313h.539l.584-3.28 1.572 3.28h.54z"/><path fill="#6F7173" d="M44.55 11.103v.314h-.135v-.314h.224c.03 0 .06.007.09.022.03.016.045.038.045.067l-.135.135.135.09h-.135v-.09h-.09v-.135h.09v-.09h-.09z"/></symbol><symbol viewBox="-92 88 14 26" id="chevron-left-dark"><path fill="none" stroke="#020203" stroke-linecap="round" stroke-linejoin="round" d="M-79.4 89.5L-90.6 101l11.2 11.5"/></symbol><symbol viewBox="-92 88 14 26" id="chevron-left-red"><path fill="none" stroke="#fd4722" stroke-linecap="round" stroke-linejoin="round" d="M-79.4 89.5L-90.6 101l11.2 11.5"/></symbol><symbol viewBox="-92 88 14 26" id="chevron-right-dark"><path fill="none" stroke="#020203" stroke-linecap="round" stroke-linejoin="round" d="M-90.6 89.5l11.2 11.5-11.2 11.5"/></symbol><symbol viewBox="-92 88 14 26" id="chevron-right-red"><path fill="none" stroke="#fd4722" stroke-linecap="round" stroke-linejoin="round" d="M-90.6 89.5l11.2 11.5-11.2 11.5"/></symbol><symbol viewBox="-97 99 14 14" id="circle-red"><path fill="#FD4722" d="M-90 103c1.654 0 3 1.346 3 3s-1.346 3-3 3-3-1.346-3-3 1.346-3 3-3m0-3a6 6 0 1 0 0 12 6 6 0 0 0 0-12z"/></symbol><symbol viewBox="-97 99 14 14" id="circle-red-fill"><circle fill="#FD4722" cx="-90" cy="106" r="6"/></symbol><symbol viewBox="0 0 22 22" id="close-white"><path fill="none" stroke="#FFF" stroke-width="2" stroke-miterlimit="10" d="M1 1l20 20M21 1L1 21"/></symbol><symbol viewBox="0 0 10 10" id="cross-dark"><g fill="none" stroke="#020203" stroke-width="2"><path d="M1.559 1.559l6.883 6.883M8.441 1.559L1.558 8.442"/></g></symbol><symbol viewBox="0 0 54 59" id="crown-mask-dark"><path fill="#020303" d="M29.74 51.31h15.467l-7.918-18.247zM9.05 51.31h15.225L16.796 33.12zM9.015 14.193a7482.94 7482.94 0 0 0-1.118 19.605c-.276 4.97-.55 9.8-.82 14.446l8.135-18.979-6.197-15.072zM26.958 9.252l-8.409 19.75 8.45 20.637 8.525-20.644zM38.805 29.399l8.024 18.647-1.932-33.371z"/><path fill="#020303" d="M0 0v59h54V0H0zm49.426 54.08H28.594l-1.595 3.855-1.585-3.855H4.575l.001-.003h-1.21l.01-.134L7.109 1.065l9.865 24.09 9.983-23.29.115.267 9.974 23.178L47.057 1.065l3.577 53.012h-1.21l.002.003z"/></symbol><symbol viewBox="0 0 11 12" id="double-chevron-left-red"><g fill="#ED4C2D"><path d="M5.375 11a.5.5 0 0 1-.379-.175l-3.865-4.47a.547.547 0 0 1 0-.71l3.865-4.469a.495.495 0 0 1 .72-.04c.21.197.226.533.038.751L2.196 6l3.558 4.113a.547.547 0 0 1-.038.75.492.492 0 0 1-.341.137z"/><path d="M9.49 11a.499.499 0 0 1-.379-.175l-3.865-4.47a.547.547 0 0 1 0-.71l3.865-4.469a.496.496 0 0 1 .72-.04c.21.197.227.533.037.751L6.311 6l3.557 4.113a.546.546 0 0 1-.036.75.495.495 0 0 1-.342.137z"/></g></symbol><symbol viewBox="0 0 11 12" id="double-chevron-right-red"><g fill="#ED4C2D"><path d="M5.625 11a.5.5 0 0 0 .379-.175l3.865-4.47a.547.547 0 0 0 0-.71L6.004 1.176a.495.495 0 0 0-.72-.04.547.547 0 0 0-.038.751L8.804 6l-3.558 4.113a.547.547 0 0 0 .038.75c.097.092.219.137.341.137z"/><path d="M1.51 11c.14 0 .278-.06.378-.175l3.866-4.47a.547.547 0 0 0 0-.71L1.888 1.176a.496.496 0 0 0-.72-.04.546.546 0 0 0-.036.751L4.689 6l-3.557 4.113a.546.546 0 0 0 .036.75c.098.092.22.137.342.137z"/></g></symbol><symbol viewBox="0 0 11 7" id="dropdown-arrow-alt-white"><path fill="#FFF" d="M8.424 1L10 2.659 5.488 6 1 2.659 2.528 1l2.96 2.204L8.424 1z"/></symbol><symbol viewBox="-93 96 12 9" id="dropdown-arrow-black"><path fill="#020203" d="M-87 104l5-7h-10z"/></symbol><symbol viewBox="-93 96 12 9" id="dropdown-arrow-white"><path fill="#FFF" d="M-87 104l5-7h-10z"/></symbol><symbol viewBox="0 0 12 22" id="facebook-dark"><path fill="#020203" d="M7.21 8.197V5.695c0-.945.2-1.514 1.433-1.514 1.141 0 2.187.011 2.187.011l.082-3.2S9.886.859 8.5.859c-3.426 0-4.91 2.112-4.91 4.412v2.926H1.07v3.425h2.517v9.518H7.21v-9.518h3.557l.162-3.425H7.21z"/></symbol><symbol viewBox="-253 245 22 22" id="instagram-dark"><path fill="none" d="M-253 252h22v22h-22z"/><path d="M-232.3 249.363v14.16c0 1.612-1.27 2.92-2.833 2.92h-13.74c-1.564 0-2.833-1.308-2.833-2.92v-14.16c0-1.611 1.27-2.92 2.833-2.92h13.74c1.564 0 2.833 1.309 2.833 2.92zm-2.018 5.83h-2.15c.084.4.122.82.122 1.25 0 3.223-2.53 5.83-5.657 5.83s-5.657-2.607-5.657-5.83c0-.43.038-.85.123-1.25h-2.15v8.75c0 .235.18.42.407.42h14.554a.41.41 0 0 0 .408-.42v-8.75zm-11.324 1.25c0 2.07 1.63 3.75 3.64 3.75s3.638-1.68 3.638-3.75-1.63-3.75-3.639-3.75-3.639 1.68-3.639 3.75zm11.324-7.5a.41.41 0 0 0-.408-.42h-2.425a.41.41 0 0 0-.408.42v2.5c0 .235.18.42.408.42h2.425a.41.41 0 0 0 .408-.42v-2.5z"/></symbol><symbol viewBox="0 0 23 22" id="linkedin-dark"><g fill="#020203"><path d="M1.228 6.861h3.754V21.14H1.228V6.861zM.873 3.077A2.215 2.215 0 0 1 3.09.86c1.24 0 2.247.976 2.247 2.218A2.247 2.247 0 0 1 3.09 5.324C1.878 5.324.873 4.32.873 3.077M18.342 21.14v-8.633c0-1.98-1.034-2.66-2.63-2.66-1.478 0-2.602.827-3.253 1.657v9.636H8.705V6.862h3.754v1.832c.917-1.064 2.69-2.188 4.997-2.188 3.163 0 4.671 1.774 4.671 4.552V21.14h-3.785z"/></g></symbol><symbol viewBox="0 0 28 35" id="logo-dark"><path fill="#020203" d="M2.968 31.976h10.2L14 34l.835-2.024h12.166L27 31.971h.002L25.047 2.95l-5.073 12.313-6-14.264-5.936 14.171-4.993-12.22-2.047 29.02h.001l-.001.005h1.97zM23.955 9.89l.99 17.197-4.082-9.708 3.092-7.49zm-3.91 9.466l4.713 11.11h-9.3l4.588-11.11zM13.976 5.04l5.18 12.211L14 29.762 8.89 17.257l5.085-12.216zM12.55 30.467H3.392l4.612-11.08 4.546 11.08zm-9.19-9.672c.214-3.815.425-7.54.637-11.175l3.15 7.678L3 27.196c.121-2.106.24-4.237.36-6.401"/></symbol><symbol viewBox="0 0 161 87" id="logo-details"><path fill="#FF4413" d="M64.146 42.798h4.835l11.165 29.039L91.31 43.5l4.835.298-16 39z"/><path fill="none" stroke="#020203" stroke-width="2" d="M.855 42.822h159.29m-113.1 0l2.407-33.959L80.146 83.57l30.95-74.707 2.299 33.959m-17.084.329L80.08 3.422 63.782 42.249"/></symbol><symbol viewBox="0 0 150 33" id="logo-mason-white"><path fill="#FFF" d="M23.115 25.34l-3.768-8.954-.754 1.823 4.35 10.248h-8.584l-.575 1.392h11.228v-.005h-1.637z"/><path fill="none" stroke="#FFF" stroke-width=".25" stroke-miterlimit="10" d="M23.115 25.34l-3.768-8.954-.754 1.823 4.35 10.248h-8.584l-.575 1.392h11.228v-.005h-1.637z"/><path fill="#FFF" d="M12.99 5.005l4.78 11.263.756-1.834L12.99 1.278 7.511 14.35l.786 1.924z"/><path fill="none" stroke="#FFF" stroke-width=".25" stroke-miterlimit="10" d="M12.99 5.005l4.78 11.263.756-1.834L12.99 1.278 7.511 14.35l.786 1.924z"/><path fill="#FFF" d="M2.832 29.85h9.415l-.572-1.393H3.224l4.256-10.22-.791-1.927-3.827 9.13c-.085 1.482-.171 2.952-.256 4.404H1.015l-.001.005h1.818z"/><path fill="none" stroke="#FFF" stroke-width=".25" stroke-miterlimit="10" d="M2.832 29.85h9.415l-.572-1.393H3.224l4.256-10.22-.791-1.927-3.827 9.13c-.085 1.482-.171 2.952-.256 4.404H1.015l-.001.005h1.818z"/><path fill="#FFF" d="M2.862 25.44c.112-1.943.222-3.908.333-5.904.197-3.518.39-6.954.587-10.307l2.907 7.081.79 1.927 4.196 10.22.572 1.392.767 1.867.77-1.867.576-1.392 4.234-10.248.754-1.824L22.2 9.478l.915 15.862.259 4.504h1.639L23.21 3.078l-4.683 11.357-.756 1.834-4.757 11.538-4.716-11.534-.787-1.924L2.903 3.08l-1.89 26.765h1.593c.086-1.452.17-2.922.256-4.404"/><path fill="none" stroke="#FFF" stroke-width=".25" stroke-miterlimit="10" d="M2.862 25.44c.112-1.943.222-3.908.333-5.904.197-3.518.39-6.954.587-10.307l2.907 7.081.79 1.927 4.196 10.22.572 1.392.767 1.867.77-1.867.576-1.392 4.234-10.248.754-1.824L22.2 9.478l.915 15.862.259 4.504h1.639L23.21 3.078l-4.683 11.357-.756 1.834-4.757 11.538-4.716-11.534-.787-1.924L2.903 3.08l-1.89 26.765h1.593c.086-1.452.17-2.922.256-4.404z"/><path fill="#FFF" d="M2.862 25.44c.112-1.943.222-3.908.333-5.904.197-3.518.39-6.954.587-10.307l2.907 7.081.79 1.927 4.196 10.22.572 1.392.767 1.867.77-1.867.576-1.392 4.234-10.248.754-1.824L22.2 9.478l.915 15.862.259 4.504h1.639L23.21 3.078l-4.683 11.357-.756 1.834-4.757 11.538-4.716-11.534-.787-1.924L2.903 3.08l-1.89 26.765h1.593c.086-1.452.17-2.922.256-4.404"/><path fill="none" stroke="#FFF" stroke-width=".25" stroke-miterlimit="10" d="M2.862 25.44c.112-1.943.222-3.908.333-5.904.197-3.518.39-6.954.587-10.307l2.907 7.081.79 1.927 4.196 10.22.572 1.392.767 1.867.77-1.867.576-1.392 4.234-10.248.754-1.824L22.2 9.478l.915 15.862.259 4.504h1.639L23.21 3.078l-4.683 11.357-.756 1.834-4.757 11.538-4.716-11.534-.787-1.924L2.903 3.08l-1.89 26.765h1.593c.086-1.452.17-2.922.256-4.404z"/><path fill="#FFF" d="M51.819 26.016L42.854 4.095 41.18 27.822h1.41c.177-2.972.35-6.02.524-9.14.174-3.116.347-6.161.52-9.134l8.184 19.93 8.145-19.711 1.043 18.055h1.45L60.86 4.095l-9.04 21.92z"/><path fill="none" stroke="#FFF" stroke-width=".25" stroke-miterlimit="10" d="M51.819 26.016L42.854 4.095 41.18 27.822h1.41c.177-2.972.35-6.02.524-9.14.174-3.116.347-6.161.52-9.134l8.184 19.93 8.145-19.711 1.043 18.055h1.45L60.86 4.095l-9.04 21.92z"/><path fill="#FFF" d="M99.524 18.795c-.46-.566-1.104-1.13-1.936-1.694-.83-.564-1.914-1.12-3.254-1.657-1.093-.442-2.003-.892-2.735-1.344-.732-.458-1.32-.9-1.764-1.33-.45-.429-.77-.842-.969-1.235-.198-.393-.298-.76-.298-1.104 0-.296.056-.69.167-1.18.113-.49.35-.97.706-1.438.36-.465.877-.868 1.545-1.21.67-.35 1.55-.522 2.642-.522 1.49 0 2.677.34 3.57 1.016.894.675 1.562 1.69 2.01 3.038l1.113-.996c-.567-1.396-1.399-2.489-2.49-3.275-1.092-.788-2.493-1.183-4.203-1.183-1.19 0-2.196.183-3.013.535-.819.357-1.482.822-1.99 1.386a5.137 5.137 0 0 0-1.097 1.859 6.213 6.213 0 0 0-.334 1.97c0 .517.085 1.03.26 1.545.172.517.494 1.034.966 1.55.471.518 1.135 1.036 1.99 1.564s1.977 1.063 3.366 1.605c1.29.517 2.308 1.012 3.05 1.49.744.48 1.3.956 1.674 1.423.373.465.6.899.69 1.304.085.41.13.795.13 1.163 0 .369-.075.824-.226 1.36-.147.541-.432 1.065-.856 1.57-.42.502-1.009.933-1.765 1.29-.757.352-1.742.531-2.957.531-1.489 0-2.747-.42-3.774-1.27-1.033-.848-1.843-1.921-2.439-3.222l-1.042 1.03a9.25 9.25 0 0 0 2.864 3.484c1.241.917 2.705 1.381 4.391 1.381 1.412 0 2.578-.226 3.496-.663.918-.444 1.65-.986 2.196-1.62.546-.644.928-1.311 1.151-2.01.225-.703.335-1.318.335-1.861 0-.516-.08-1.052-.24-1.601-.163-.558-.474-1.116-.93-1.68"/><path fill="none" stroke="#FFF" stroke-width=".25" stroke-miterlimit="10" d="M99.524 18.795c-.46-.566-1.104-1.13-1.936-1.694-.83-.564-1.914-1.12-3.254-1.657-1.093-.442-2.003-.892-2.735-1.344-.732-.458-1.32-.9-1.764-1.33-.45-.429-.77-.842-.969-1.235-.198-.393-.298-.76-.298-1.104 0-.296.056-.69.167-1.18.113-.49.35-.97.706-1.438.36-.465.877-.868 1.545-1.21.67-.35 1.55-.522 2.642-.522 1.49 0 2.677.34 3.57 1.016.894.675 1.562 1.69 2.01 3.038l1.113-.996c-.567-1.396-1.399-2.489-2.49-3.275-1.092-.788-2.493-1.183-4.203-1.183-1.19 0-2.196.183-3.013.535-.819.357-1.482.822-1.99 1.386a5.137 5.137 0 0 0-1.097 1.859 6.213 6.213 0 0 0-.334 1.97c0 .517.085 1.03.26 1.545.172.517.494 1.034.966 1.55.471.518 1.135 1.036 1.99 1.564s1.977 1.063 3.366 1.605c1.29.517 2.308 1.012 3.05 1.49.744.48 1.3.956 1.674 1.423.373.465.6.899.69 1.304.085.41.13.795.13 1.163 0 .369-.075.824-.226 1.36-.147.541-.432 1.065-.856 1.57-.42.502-1.009.933-1.765 1.29-.757.352-1.742.531-2.957.531-1.489 0-2.747-.42-3.774-1.27-1.033-.848-1.843-1.921-2.439-3.222l-1.042 1.03a9.25 9.25 0 0 0 2.864 3.484c1.241.917 2.705 1.381 4.391 1.381 1.412 0 2.578-.226 3.496-.663.918-.444 1.65-.986 2.196-1.62.546-.644.928-1.311 1.151-2.01.225-.703.335-1.318.335-1.861 0-.516-.08-1.052-.24-1.601-.163-.558-.474-1.116-.93-1.68z"/><path fill="#FFF" d="M124.984 20.6a10.064 10.064 0 0 1-2.156 3.262c-.92.92-2.01 1.653-3.274 2.192-1.266.538-2.653.81-4.166.81-1.49 0-2.866-.272-4.13-.81a10.226 10.226 0 0 1-3.272-2.192 9.99 9.99 0 0 1-2.158-3.262 10.267 10.267 0 0 1-.78-3.978c0-1.427.26-2.757.78-3.998a10.233 10.233 0 0 1 2.158-3.261c.917-.933 2.009-1.668 3.273-2.211 1.263-.543 2.64-.813 4.129-.813 1.513 0 2.9.27 4.166.813a10.183 10.183 0 0 1 3.274 2.21 10.311 10.311 0 0 1 2.156 3.262c.522 1.24.782 2.57.782 3.998 0 1.4-.26 2.726-.782 3.978M123.83 8.367a12.08 12.08 0 0 0-3.738-2.508c-1.427-.613-2.994-.917-4.705-.917-1.71 0-3.28.304-4.704.917a11.62 11.62 0 0 0-3.702 2.508 11.131 11.131 0 0 0-2.474 3.704c-.584 1.412-.875 2.93-.875 4.55 0 1.624.29 3.133.875 4.533.58 1.4 1.407 2.63 2.474 3.685a10.997 10.997 0 0 0 3.702 2.522c1.425.603 2.994.903 4.704.903 1.71 0 3.278-.3 4.705-.903a11.412 11.412 0 0 0 3.738-2.522 11.71 11.71 0 0 0 2.456-3.685c.596-1.4.89-2.91.89-4.532 0-1.62-.294-3.14-.89-4.551a11.705 11.705 0 0 0-2.456-3.704"/><path fill="none" stroke="#FFF" stroke-width=".25" stroke-miterlimit="10" d="M124.984 20.6a10.064 10.064 0 0 1-2.156 3.262c-.92.92-2.01 1.653-3.274 2.192-1.266.538-2.653.81-4.166.81-1.49 0-2.866-.272-4.13-.81a10.226 10.226 0 0 1-3.272-2.192 9.99 9.99 0 0 1-2.158-3.262 10.267 10.267 0 0 1-.78-3.978c0-1.427.26-2.757.78-3.998a10.233 10.233 0 0 1 2.158-3.261c.917-.933 2.009-1.668 3.273-2.211 1.263-.543 2.64-.813 4.129-.813 1.513 0 2.9.27 4.166.813a10.183 10.183 0 0 1 3.274 2.21 10.311 10.311 0 0 1 2.156 3.262c.522 1.24.782 2.57.782 3.998 0 1.4-.26 2.726-.782 3.978zM123.83 8.367a12.08 12.08 0 0 0-3.738-2.508c-1.427-.613-2.994-.917-4.705-.917-1.71 0-3.28.304-4.704.917a11.62 11.62 0 0 0-3.702 2.508 11.131 11.131 0 0 0-2.474 3.704c-.584 1.412-.875 2.93-.875 4.55 0 1.624.29 3.133.875 4.533.58 1.4 1.407 2.63 2.474 3.685a10.997 10.997 0 0 0 3.702 2.522c1.425.603 2.994.903 4.704.903 1.71 0 3.278-.3 4.705-.903a11.412 11.412 0 0 0 3.738-2.522 11.71 11.71 0 0 0 2.456-3.685c.596-1.4.89-2.91.89-4.532 0-1.62-.294-3.14-.89-4.551a11.705 11.705 0 0 0-2.456-3.704z"/><path fill="#FFF" d="M130.826 27.821h1.412V8.072l16.776 21.517V5.346h-1.378V25.54l-16.81-21.52z"/><path fill="none" stroke="#FFF" stroke-width=".25" stroke-miterlimit="10" d="M147.636 5.347V25.54L130.826 4.02v23.802h1.412V8.072l16.776 21.518V5.347z"/><path fill="#FFF" d="M66.509 26.67L74.674 7.25l8.32 19.422H66.509zm-1.848 1.152h20.064L74.674 4.162l-10.013 23.66z"/><path fill="none" stroke="#FFF" stroke-width=".25" stroke-miterlimit="10" d="M66.509 26.67L74.674 7.25l8.32 19.422H66.509zm-1.848 1.152h20.064L74.674 4.162l-10.013 23.66z"/></symbol><symbol viewBox="0 0 28 35" id="logo-mid-dark"><path fill="#5a5b62" d="M2.968 31.976h10.2L14 34l.835-2.024h12.166L27 31.971h.002L25.047 2.95l-5.073 12.313-6-14.264-5.936 14.171-4.993-12.22-2.047 29.02h.001l-.001.005h1.97zM23.955 9.89l.99 17.197-4.082-9.708 3.092-7.49zm-3.91 9.466l4.713 11.11h-9.3l4.588-11.11zM13.976 5.04l5.18 12.211L14 29.762 8.89 17.257l5.085-12.216zM12.55 30.467H3.392l4.612-11.08 4.546 11.08zm-9.19-9.672c.214-3.815.425-7.54.637-11.175l3.15 7.678L3 27.196c.121-2.106.24-4.237.36-6.401"/></symbol><symbol viewBox="0 0 31.5726738 38" id="logo-red-a"><path fill="#fd4722" d="M16.17 1.204L2.076 34.508H30.32L16.17 1.204zM4.678 32.884L16.17 5.55l11.712 27.336H4.678z"/></symbol><symbol viewBox="-496.9997864 494 31.9500008 38" id="logo-red-m"><path fill="#fd4722" d="M-466.05 528.508h-2.042l-1.467-25.415-11.466 27.749-11.52-28.06a5431.18 5431.18 0 0 0-.732 12.863c-.246 4.39-.49 8.679-.734 12.863H-496l2.357-33.402 12.618 30.86 12.724-30.86 2.251 33.402z"/></symbol><symbol viewBox="0 0 29.5 38" id="logo-red-n"><path fill="#fd4722" d="M2.908 1.003l23.665 30.29V2.867h1.938v34.13L4.897 6.707v27.8H2.908z"/></symbol><symbol viewBox="0 0 37.5833321 38" id="logo-red-o"><path fill="#fd4722" d="M18.763 35.13c-2.41 0-4.616-.423-6.624-1.27-2.009-.847-3.743-2.03-5.21-3.552a15.71 15.71 0 0 1-3.482-5.189c-.82-1.97-1.23-4.095-1.23-6.378 0-2.282.41-4.417 1.23-6.407a15.673 15.673 0 0 1 3.482-5.212c1.467-1.485 3.201-2.662 5.21-3.526 2.008-.863 4.214-1.296 6.624-1.296 2.408 0 4.614.433 6.623 1.296a16.933 16.933 0 0 1 5.261 3.526 16.454 16.454 0 0 1 3.457 5.212c.838 1.99 1.256 4.125 1.256 6.407 0 2.283-.418 4.408-1.256 6.378a16.5 16.5 0 0 1-3.457 5.189 16.119 16.119 0 0 1-5.26 3.552c-2.01.847-4.216 1.27-6.624 1.27M4.207 18.742c0 1.97.366 3.838 1.099 5.602.733 1.76 1.745 3.291 3.038 4.589 1.288 1.296 2.826 2.327 4.607 3.086 1.778.76 3.715 1.142 5.812 1.142 2.128 0 4.082-.381 5.862-1.142 1.781-.76 3.316-1.79 4.61-3.086 1.29-1.298 2.302-2.828 3.035-4.59.734-1.763 1.1-3.63 1.1-5.6 0-2.007-.366-3.882-1.1-5.628a14.51 14.51 0 0 0-3.036-4.592c-1.293-1.313-2.828-2.349-4.609-3.111-1.78-.76-3.734-1.142-5.862-1.142-2.097 0-4.034.382-5.812 1.142-1.781.762-3.319 1.798-4.607 3.111a14.464 14.464 0 0 0-3.038 4.592c-.733 1.746-1.1 3.621-1.1 5.627"/></symbol><symbol viewBox="0 0 23.145834 38" id="logo-red-s"><path fill="#fd4722" d="M11.12 35.079c-2.373 0-4.433-.65-6.177-1.945A12.99 12.99 0 0 1 .91 28.232l1.466-1.452c.837 1.832 1.98 3.345 3.43 4.537 1.448 1.195 3.218 1.79 5.313 1.79 1.71 0 3.098-.25 4.163-.752 1.065-.5 1.895-1.105 2.487-1.815.594-.71.995-1.444 1.204-2.205.21-.76.316-1.4.316-1.918 0-.52-.063-1.064-.183-1.635-.124-.57-.447-1.183-.97-1.839-.524-.657-1.308-1.325-2.355-1.998-1.048-.675-2.48-1.373-4.294-2.1-1.956-.762-3.534-1.513-4.74-2.257-1.204-.744-2.137-1.478-2.8-2.204-.664-.727-1.117-1.452-1.362-2.18a6.78 6.78 0 0 1-.366-2.176c0-.9.157-1.824.47-2.777a7.352 7.352 0 0 1 1.544-2.617c.717-.795 1.651-1.443 2.803-1.946 1.151-.5 2.566-.751 4.241-.751 2.408 0 4.38.554 5.916 1.659 1.536 1.107 2.706 2.645 3.509 4.616l-1.57 1.4c-.63-1.902-1.572-3.328-2.829-4.278-1.258-.95-2.931-1.427-5.026-1.427-1.537 0-2.775.24-3.718.727-.94.482-1.667 1.053-2.173 1.71-.505.656-.836 1.333-.994 2.024-.159.69-.237 1.243-.237 1.66 0 .484.14 1.002.42 1.555.279.554.732 1.134 1.362 1.737.627.606 1.456 1.227 2.487 1.87 1.03.638 2.311 1.27 3.847 1.891 1.886.76 3.412 1.539 4.582 2.334 1.168.796 2.075 1.59 2.723 2.386.645.794 1.08 1.58 1.309 2.36.226.777.34 1.53.34 2.256 0 .762-.157 1.633-.472 2.619-.312.984-.854 1.928-1.622 2.828-.768.898-1.8 1.658-3.09 2.28-1.292.622-2.932.935-4.922.935"/></symbol><symbol viewBox="-86 84 26 33" id="logo-white"><path fill="#FFF" d="M-67.417 102.208l4.35 10.248h-8.584l-.576 1.394h11.23l-.002-.007h-1.636l-.26-4.503-3.768-8.955z"/><path fill="none" stroke="#FFF" stroke-width=".25" stroke-miterlimit="10" d="M-62.895 109.34l-3.768-8.954-.754 1.823 4.349 10.248h-8.583l-.575 1.392H-60.998l-.001-.005h-1.636z"/><path fill="#FFF" d="M-73.02 89.005l4.78 11.263.755-1.834-5.536-13.156L-78.5 98.35l.786 1.924z"/><path fill="none" stroke="#FFF" stroke-width=".25" stroke-miterlimit="10" d="M-73.02 89.005l4.78 11.263.755-1.834-5.536-13.156L-78.5 98.35l.786 1.924z"/><path fill="#FFF" d="M-83.179 113.849h9.415l-.572-1.392h-8.45l4.255-10.22-.79-1.927-3.828 9.13c-.085 1.482-.17 2.952-.256 4.404h-1.59l-.002.005h1.818z"/><path fill="none" stroke="#FFF" stroke-width=".25" stroke-miterlimit="10" d="M-83.179 113.849h9.415l-.572-1.392h-8.45l4.255-10.22-.79-1.927-3.828 9.13c-.085 1.482-.17 2.952-.256 4.404h-1.59l-.002.005h1.818z"/><path fill="#FFF" d="M-83.15 109.44c.113-1.943.223-3.908.334-5.904.197-3.518.39-6.954.587-10.307l2.907 7.081.79 1.927 4.196 10.22.572 1.392.767 1.867.77-1.867.576-1.392 4.234-10.248.754-1.824 2.853-6.907.915 15.862.259 4.504h1.639l-1.804-26.766-4.683 11.357-.756 1.834-4.757 11.538-4.716-11.534-.787-1.924-4.608-11.271-1.89 26.766h1.593c.086-1.452.17-2.922.256-4.404"/><path fill="none" stroke="#FFF" stroke-width=".25" stroke-miterlimit="10" d="M-83.15 109.44c.113-1.943.223-3.908.334-5.904.197-3.518.39-6.954.587-10.307l2.907 7.081.79 1.927 4.196 10.22.572 1.392.767 1.867.77-1.867.576-1.392 4.234-10.248.754-1.824 2.853-6.907.915 15.862.259 4.504h1.639l-1.804-26.766-4.683 11.357-.756 1.834-4.757 11.538-4.716-11.534-.787-1.924-4.608-11.271-1.89 26.766h1.593c.086-1.452.17-2.922.256-4.404z"/><path fill="#FFF" d="M-83.15 109.44c.113-1.943.223-3.908.334-5.904.197-3.518.39-6.954.587-10.307l2.907 7.081.79 1.927 4.196 10.22.572 1.392.767 1.867.77-1.867.576-1.392 4.234-10.248.754-1.824 2.853-6.907.915 15.862.259 4.504h1.639l-1.804-26.766-4.683 11.357-.756 1.834-4.757 11.538-4.716-11.534-.787-1.924-4.608-11.271-1.89 26.766h1.593c.086-1.452.17-2.922.256-4.404"/><path fill="none" stroke="#FFF" stroke-width=".25" stroke-miterlimit="10" d="M-83.15 109.44c.113-1.943.223-3.908.334-5.904.197-3.518.39-6.954.587-10.307l2.907 7.081.79 1.927 4.196 10.22.572 1.392.767 1.867.77-1.867.576-1.392 4.234-10.248.754-1.824 2.853-6.907.915 15.862.259 4.504h1.639l-1.804-26.766-4.683 11.357-.756 1.834-4.757 11.538-4.716-11.534-.787-1.924-4.608-11.271-1.89 26.766h1.593c.086-1.452.17-2.922.256-4.404z"/></symbol><symbol viewBox="0 0 54 59" id="logo-white-a"><path fill="#FFF" d="M27.072 2.132l-.115-.268L4.65 53.906l-.075.174h44.85L27.073 2.132zM45.207 51.31H9.05L26.958 9.252 45.207 51.31z"/></symbol><symbol viewBox="0 0 54 59" id="logo-white-m"><path fill="#FFF" d="M47.057 1.065L27 49.639 7.109 1.065 3.376 53.943l-.01.134h3.37l.007-.117c.374-6.336.762-13.12 1.154-20.162.366-6.554.741-13.147 1.118-19.605L27 57.935l17.898-43.26 2.282 39.402h3.455L47.057 1.065z"/></symbol><symbol viewBox="0 0 54 59" id="logo-white-n"><path fill="#FFF" d="M7 54.058h3.106V10.035L47 57.999V3.958h-3.03v45.014L7 1z"/><path fill="none" stroke="#FFF" stroke-width=".25" stroke-miterlimit="10" d="M43.97 3.957v45.016L7 1v53.057h3.106V10.035L47 58V3.957z"/></symbol><symbol viewBox="0 0 54 54" id="logo-white-o"><path fill="#FFF" d="M48.155 35.912c-1.153 2.791-2.74 5.219-4.762 7.274-2.031 2.054-4.44 3.686-7.232 4.886-2.793 1.201-5.857 1.807-9.2 1.807-3.289 0-6.329-.606-9.118-1.807-2.792-1.2-5.204-2.832-7.229-4.886-2.029-2.055-3.617-4.483-4.766-7.274-1.147-2.791-1.721-5.75-1.721-8.87 0-3.18.574-6.147 1.721-8.914 1.149-2.765 2.737-5.193 4.766-7.272 2.025-2.079 4.437-3.719 7.229-4.928 2.79-1.211 5.829-1.814 9.119-1.814 3.342 0 6.406.603 9.199 1.814 2.792 1.21 5.201 2.85 7.232 4.928 2.023 2.08 3.61 4.507 4.762 7.272 1.152 2.767 1.728 5.733 1.728 8.914 0 3.12-.576 6.079-1.728 8.87M45.608 8.636c-2.355-2.352-5.104-4.214-8.254-5.591C34.203 1.679 30.74 1 26.962 1c-3.777 0-7.243.679-10.39 2.045-3.154 1.377-5.874 3.239-8.176 5.591a24.89 24.89 0 0 0-5.464 8.259C1.643 20.042 1 23.429 1 27.042c0 3.62.643 6.983 1.932 10.106a24.887 24.887 0 0 0 5.464 8.216c2.302 2.41 5.022 4.283 8.176 5.623C19.719 52.33 23.185 53 26.962 53c3.779 0 7.24-.67 10.392-2.013 3.15-1.34 5.9-3.213 8.254-5.623 2.3-2.353 4.11-5.095 5.425-8.216C52.348 34.025 53 30.662 53 27.042c0-3.613-.652-7-1.967-10.147-1.315-3.147-3.124-5.898-5.425-8.259"/><path fill="none" stroke="#FFF" stroke-width=".25" stroke-miterlimit="10" d="M48.155 35.912c-1.153 2.791-2.74 5.219-4.762 7.274-2.031 2.054-4.44 3.686-7.232 4.886-2.793 1.201-5.857 1.807-9.2 1.807-3.289 0-6.329-.606-9.118-1.807-2.792-1.2-5.204-2.832-7.229-4.886-2.029-2.055-3.617-4.483-4.766-7.274-1.147-2.791-1.721-5.75-1.721-8.87 0-3.18.574-6.147 1.721-8.914 1.149-2.765 2.737-5.193 4.766-7.272 2.025-2.079 4.437-3.719 7.229-4.928 2.79-1.211 5.829-1.814 9.119-1.814 3.342 0 6.406.603 9.199 1.814 2.792 1.21 5.201 2.85 7.232 4.928 2.023 2.08 3.61 4.507 4.762 7.272 1.152 2.767 1.728 5.733 1.728 8.914 0 3.12-.576 6.079-1.728 8.87zM45.608 8.636c-2.355-2.352-5.104-4.214-8.254-5.591C34.203 1.679 30.74 1 26.962 1c-3.777 0-7.243.679-10.39 2.045-3.154 1.377-5.874 3.239-8.176 5.591a24.89 24.89 0 0 0-5.464 8.259C1.643 20.042 1 23.429 1 27.042c0 3.62.643 6.983 1.932 10.106a24.887 24.887 0 0 0 5.464 8.216c2.302 2.41 5.022 4.283 8.176 5.623C19.719 52.33 23.185 53 26.962 53c3.779 0 7.24-.67 10.392-2.013 3.15-1.34 5.9-3.213 8.254-5.623 2.3-2.353 4.11-5.095 5.425-8.216C52.348 34.025 53 30.662 53 27.042c0-3.613-.652-7-1.967-10.147-1.315-3.147-3.124-5.898-5.425-8.259z"/></symbol><symbol viewBox="0 0 54 55" id="logo-white-s"><path fill="#FFF" d="M40.42 32.664c-1.022-1.247-2.448-2.494-4.293-3.74-1.84-1.247-4.242-2.47-7.215-3.66-2.423-.976-4.44-1.968-6.063-2.968-1.623-1.012-2.929-1.986-3.913-2.937-.996-.945-1.708-1.856-2.149-2.724-.436-.87-.658-1.682-.658-2.438 0-.655.123-1.524.37-2.608.25-1.083.774-2.142 1.565-3.175.798-1.025 1.943-1.919 3.426-2.674 1.482-.772 3.436-1.148 5.858-1.148 3.302 0 5.934.747 7.915 2.239 1.981 1.494 3.464 3.732 4.456 6.71l2.47-2.198c-1.26-3.085-3.104-5.497-5.525-7.235C34.245 2.37 31.139 1.5 27.348 1.5c-2.642 0-4.87.4-6.681 1.18-1.817.787-3.286 1.813-4.415 3.06-1.129 1.239-1.936 2.61-2.43 4.103-.5 1.493-.741 2.943-.741 4.354 0 1.14.189 2.275.576 3.412.382 1.14 1.095 2.281 2.142 3.423 1.046 1.141 2.517 2.287 4.41 3.454 1.899 1.163 4.387 2.346 7.468 3.543 2.858 1.14 5.115 2.232 6.762 3.29 1.648 1.058 2.882 2.109 3.71 3.143.828 1.024 1.331 1.984 1.528 2.877.191.904.29 1.756.29 2.568 0 .814-.166 1.823-.5 3.003-.326 1.198-.959 2.355-1.897 3.47-.932 1.109-2.238 2.06-3.914 2.846-1.68.78-3.862 1.174-6.557 1.174-3.301 0-6.09-.928-8.367-2.806-2.291-1.87-4.087-4.242-5.41-7.112l-2.309 2.272c1.486 3.093 3.6 5.661 6.35 7.697C20.115 52.475 23.36 53.5 27.1 53.5c3.13 0 5.717-.498 7.753-1.467 2.034-.977 3.656-2.175 4.867-3.577 1.21-1.42 2.059-2.895 2.553-4.438.5-1.55.741-2.912.741-4.11 0-1.14-.177-2.323-.534-3.537-.359-1.23-1.046-2.46-2.059-3.707"/><path fill="none" stroke="#FFF" stroke-width=".25" stroke-miterlimit="10" d="M40.42 32.664c-1.022-1.247-2.448-2.494-4.293-3.74-1.84-1.247-4.242-2.47-7.215-3.66-2.423-.976-4.44-1.968-6.063-2.968-1.623-1.012-2.929-1.986-3.913-2.937-.996-.945-1.708-1.856-2.149-2.724-.436-.87-.658-1.682-.658-2.438 0-.655.123-1.524.37-2.608.25-1.083.774-2.142 1.565-3.175.798-1.025 1.943-1.919 3.426-2.674 1.482-.772 3.436-1.148 5.858-1.148 3.302 0 5.934.747 7.915 2.239 1.981 1.494 3.464 3.732 4.456 6.71l2.47-2.198c-1.26-3.085-3.104-5.497-5.525-7.235C34.245 2.37 31.139 1.5 27.348 1.5c-2.642 0-4.87.4-6.681 1.18-1.817.787-3.286 1.813-4.415 3.06-1.129 1.239-1.936 2.61-2.43 4.103-.5 1.493-.741 2.943-.741 4.354 0 1.14.189 2.275.576 3.412.382 1.14 1.095 2.281 2.142 3.423 1.046 1.141 2.517 2.287 4.41 3.454 1.899 1.163 4.387 2.346 7.468 3.543 2.858 1.14 5.115 2.232 6.762 3.29 1.648 1.058 2.882 2.109 3.71 3.143.828 1.024 1.331 1.984 1.528 2.877.191.904.29 1.756.29 2.568 0 .814-.166 1.823-.5 3.003-.326 1.198-.959 2.355-1.897 3.47-.932 1.109-2.238 2.06-3.914 2.846-1.68.78-3.862 1.174-6.557 1.174-3.301 0-6.09-.928-8.367-2.806-2.291-1.87-4.087-4.242-5.41-7.112l-2.309 2.272c1.486 3.093 3.6 5.661 6.35 7.697C20.115 52.475 23.36 53.5 27.1 53.5c3.13 0 5.717-.498 7.753-1.467 2.034-.977 3.656-2.175 4.867-3.577 1.21-1.42 2.059-2.895 2.553-4.438.5-1.55.741-2.912.741-4.11 0-1.14-.177-2.323-.534-3.537-.359-1.23-1.046-2.46-2.059-3.707z"/></symbol><symbol viewBox="0 0 121 40" id="mason-arrows-white"><g fill="#FFF"><path d="M64.125 28.14c-.461-.565-1.104-1.13-1.936-1.694-.83-.564-1.914-1.119-3.254-1.657-1.093-.442-2.003-.89-2.735-1.344-.732-.458-1.321-.9-1.764-1.33-.45-.428-.771-.84-.97-1.234-.197-.394-.297-.76-.297-1.104 0-.297.056-.69.167-1.18.113-.49.35-.97.706-1.438.36-.465.877-.869 1.545-1.21.669-.35 1.55-.522 2.642-.522 1.49 0 2.677.34 3.57 1.015.894.676 1.562 1.69 2.01 3.038l1.113-.995c-.567-1.397-1.4-2.489-2.491-3.276-1.091-.788-2.492-1.182-4.202-1.182-1.191 0-2.196.182-3.013.535-.82.356-1.482.821-1.991 1.386a5.137 5.137 0 0 0-1.096 1.858 6.213 6.213 0 0 0-.334 1.971c0 .517.085 1.03.26 1.545.172.517.494 1.034.966 1.55.47.517 1.135 1.036 1.989 1.564.856.528 1.978 1.063 3.367 1.605 1.29.517 2.308 1.011 3.05 1.49.744.48 1.3.955 1.674 1.423.373.464.6.898.689 1.303.086.41.13.795.13 1.163 0 .37-.074.825-.225 1.36-.147.542-.432 1.066-.856 1.571-.42.502-1.01.933-1.765 1.29-.757.352-1.742.531-2.957.531-1.49 0-2.747-.42-3.774-1.27-1.033-.848-1.843-1.922-2.44-3.222l-1.041 1.03a9.25 9.25 0 0 0 2.864 3.484c1.24.917 2.705 1.381 4.39 1.381 1.413 0 2.579-.226 3.497-.664.918-.443 1.65-.985 2.196-1.62.546-.643.928-1.31 1.15-2.01.226-.702.336-1.318.336-1.86 0-.517-.08-1.053-.241-1.602-.162-.558-.473-1.115-.93-1.679M91.04 29.945a10.064 10.064 0 0 1-2.156 3.262c-.92.921-2.01 1.653-3.274 2.192-1.266.538-2.653.81-4.166.81-1.49 0-2.866-.272-4.13-.81a10.226 10.226 0 0 1-3.272-2.192 9.99 9.99 0 0 1-2.158-3.262 10.267 10.267 0 0 1-.78-3.978c0-1.427.26-2.757.78-3.998a10.233 10.233 0 0 1 2.158-3.26c.917-.934 2.009-1.669 3.273-2.212 1.263-.543 2.64-.813 4.129-.813 1.513 0 2.9.27 4.166.813a10.183 10.183 0 0 1 3.274 2.211 10.311 10.311 0 0 1 2.156 3.261c.522 1.241.782 2.571.782 3.998 0 1.4-.26 2.726-.782 3.978m-1.153-12.233a12.08 12.08 0 0 0-3.738-2.508c-1.427-.613-2.994-.917-4.705-.917-1.71 0-3.28.304-4.704.917a11.62 11.62 0 0 0-3.702 2.508 11.131 11.131 0 0 0-2.474 3.704c-.584 1.412-.875 2.931-.875 4.551 0 1.623.29 3.132.875 4.532.58 1.4 1.407 2.63 2.474 3.685a10.997 10.997 0 0 0 3.702 2.522c1.425.603 2.994.903 4.704.903 1.71 0 3.278-.3 4.705-.903a11.412 11.412 0 0 0 3.738-2.522 11.71 11.71 0 0 0 2.456-3.685c.596-1.4.89-2.909.89-4.532 0-1.62-.294-3.139-.89-4.55a11.705 11.705 0 0 0-2.456-3.705"/></g><path fill="#FFF" d="M98.336 37.167h1.412V17.418l16.776 21.517V14.692h-1.378v20.194l-16.81-21.52zM11.621 35.361l-8.965-21.92L.983 37.166h1.411c.176-2.972.35-6.019.523-9.139.174-3.117.347-6.162.521-9.135l8.183 19.931 8.145-19.712 1.043 18.055h1.451L20.661 13.44l-9.04 21.921zM26.47 36.182l8.611-19.733 8.774 19.733H26.47zm-1.95 1.17h21.161l-10.6-24.04-10.56 24.04z"/><path fill="none" stroke="#FF4413" stroke-width=".5" d="M20.834 4.719h95.816"/><path fill="#FF4413" d="M116.086 1.064v7.31l3.93-3.656z"/><path fill="none" stroke="#FF4413" stroke-width=".5" d="M20.834 25.397h10.772"/><path fill="#FF4413" d="M34.973 25.397l-3.93-3.654v7.308z"/><path fill="none" stroke="#FF4413" stroke-width=".5" d="M43.515 25.397h10.772"/><path fill="#FF4413" d="M57.654 25.397l-3.93-3.654v7.308z"/><path fill="none" stroke="#FF4413" stroke-width=".5" d="M65.419 25.397h10.772"/><path fill="#FF4413" d="M79.559 25.397l-3.931-3.654v7.308z"/><path fill="none" stroke="#FF4413" stroke-width=".5" d="M87.324 25.397h10.772"/><path fill="#FF4413" d="M101.463 25.397l-3.93-3.654v7.308z"/></symbol><symbol viewBox="0 0 200 110" id="mason-badge-white"><g fill="#FFF"><path d="M44.006 104.163h9.15v.611h-9.15zM146.842 104.163h9.151v.611h-9.151zM20.533 85.597L4.073 45.293 1 88.917h2.59c.321-5.462.643-11.065.96-16.801.32-5.731.639-11.331.958-16.796l15.025 36.643 14.955-36.24 1.918 33.194h2.66l-2.933-43.624-16.6 40.304zM108.128 72.32c-.846-1.038-2.026-2.078-3.555-3.114-1.522-1.038-3.512-2.058-5.975-3.047-2.004-.813-3.675-1.638-5.02-2.471-1.343-.843-2.426-1.654-3.24-2.446-.825-.785-1.414-1.545-1.78-2.268-.362-.724-.548-1.4-.548-2.03 0-.546.104-1.268.309-2.17.207-.903.64-1.785 1.296-2.644.662-.854 1.61-1.598 2.838-2.227 1.227-.641 2.845-.956 4.85-.956 2.735 0 4.914.623 6.555 1.864 1.641 1.244 2.866 3.107 3.69 5.587l2.047-1.83c-1.044-2.568-2.571-4.576-4.577-6.022-2.004-1.448-4.574-2.173-7.714-2.173-2.188 0-4.033.333-5.534.983-1.505.654-2.723 1.508-3.656 2.547-.935 1.032-1.603 2.172-2.01 3.417-.417 1.243-.615 2.45-.615 3.625 0 .95.155 1.893.476 2.84.318.95.91 1.9 1.776 2.85.864.95 2.08 1.905 3.65 2.875 1.573.97 3.632 1.954 6.185 2.951 2.366.95 4.235 1.858 5.598 2.74 1.367.88 2.387 1.755 3.075 2.616.685.853 1.102 1.652 1.265 2.396.16.753.239 1.462.239 2.137 0 .679-.136 1.517-.412 2.5-.27.997-.794 1.961-1.572 2.89-.77.923-1.852 1.714-3.242 2.37-1.391.649-3.198.977-5.429.977-2.734 0-5.044-.773-6.93-2.336-1.897-1.557-3.386-3.533-4.48-5.922l-1.912 1.891c1.232 2.576 2.979 4.713 5.258 6.407 2.278 1.687 4.967 2.54 8.064 2.54 2.592 0 4.732-.415 6.42-1.22 1.683-.815 3.03-1.812 4.03-2.978 1.003-1.183 1.705-2.412 2.116-3.696.411-1.291.614-2.425.614-3.423 0-.948-.148-1.933-.444-2.944-.297-1.025-.867-2.05-1.706-3.086M152.76 53.147c-1.96-1.94-4.243-3.475-6.861-4.61-2.622-1.126-5.499-1.687-8.64-1.687-3.143 0-6.024.56-8.64 1.687-2.623 1.135-4.885 2.67-6.795 4.61a20.475 20.475 0 0 0-4.545 6.81c-1.072 2.595-1.607 5.389-1.607 8.366 0 2.986.535 5.76 1.607 8.335a20.466 20.466 0 0 0 4.545 6.775c1.91 1.987 4.172 3.532 6.795 4.636 2.616 1.108 5.497 1.661 8.64 1.661 3.141 0 6.018-.553 8.64-1.66a20.969 20.969 0 0 0 6.86-4.637c1.914-1.94 3.419-4.201 4.512-6.775 1.091-2.575 1.635-5.349 1.635-8.335 0-2.977-.544-5.77-1.635-8.366-1.093-2.594-2.598-4.862-4.512-6.81m2.12 22.492c-.96 2.302-2.28 4.303-3.963 5.998-1.686 1.693-3.687 3.039-6.01 4.03-2.325.99-4.872 1.489-7.647 1.489-2.735 0-5.262-.5-7.583-1.49-2.32-.99-4.326-2.336-6.011-4.029-1.687-1.695-3.006-3.696-3.962-5.998-.955-2.301-1.43-4.74-1.43-7.316 0-2.622.475-5.067 1.43-7.348.956-2.28 2.275-4.283 3.962-5.997 1.685-1.714 3.69-3.068 6.01-4.064 2.322-.998 4.85-1.495 7.584-1.495 2.775 0 5.322.497 7.647 1.495 2.323.996 4.324 2.35 6.01 4.064 1.683 1.714 3.003 3.717 3.964 5.997.955 2.281 1.433 4.726 1.433 7.348 0 2.575-.478 5.015-1.433 7.316M196.471 84.723l-30.866-39.567v43.761h2.592v-36.31L199 92.168V47.595h-2.529zM44.113 88.917H80.955L62.501 45.416 44.113 88.917zm3.394-2.117l14.994-35.709 15.276 35.71h-30.27zM88.241 34.036h10.873l.886 2.16.89-2.16h12.965v-.005h.002l-2.083-30.95-5.408 13.133L99.973 1l-6.328 15.114-5.32-13.033-2.183 30.95h.001v.005h2.098zm22.367-23.554l1.056 18.34-4.35-10.355 3.294-7.985zm-4.165 10.094l5.022 11.851h-9.911l4.89-11.85zM99.973 5.31l5.52 13.024L100 31.675l-5.446-13.337 5.42-13.028zm-1.52 27.117h-9.759l4.916-11.818 4.843 11.818zm-9.792-10.315c.226-4.069.451-8.042.677-11.92l3.357 8.19-4.419 10.556c.13-2.247.257-4.519.385-6.826"/><g><path d="M63.461 101.085l-2.56 6.276-2.538-6.276-.22.034-.503 7.198h.648l.285-5.049L60.9 109l2.318-5.67.284 4.987h.658l-.48-7.198zM65.051 108.317h.698l.854-1.988h3.185l.846 1.988h.697l-3.145-7.485-3.135 7.485zm4.469-2.635h-2.659l1.325-3.324 1.334 3.324zM76.953 101.415l-3.825 3.338v-3.366h-.647v6.93h.647v-2.71c.11-.09.215-.183.313-.277.086-.078.174-.158.268-.237l3.385 3.224h.875l-3.778-3.66 3.782-3.27-1.02.028zM79.568 104.944h2.84v-.646h-2.84v-2.265h3.442v-.646h-4.09v6.93h4.366v-.648h-3.718zM96.444 101.522a3.997 3.997 0 0 0-1.102-.135h-1.856v6.93h.644v-2.9h1.16c.274 0 .514-.016.717-.047.205-.029.38-.067.522-.113.146-.045.27-.096.368-.151.094-.054.175-.103.25-.153.206-.161.385-.366.527-.61.145-.248.217-.543.208-.873.016-.656-.198-1.174-.635-1.54a2.246 2.246 0 0 0-.803-.408m-2.314.511h1.212c.362 0 .668.035.912.105.24.068.437.166.584.284.138.12.24.263.302.432.065.173.1.382.107.61-.006.223-.05.415-.133.57a1.431 1.431 0 0 1-.862.656c-.192.054-.382.08-.569.08H94.13v-2.737zM102.05 105.221c.222-.09.396-.18.516-.268.21-.162.384-.367.527-.608.147-.249.217-.545.207-.875a2.115 2.115 0 0 0-.15-.87 1.73 1.73 0 0 0-.495-.673 2.409 2.409 0 0 0-.806-.397 3.803 3.803 0 0 0-1.086-.143H99.22v6.93h.647v-2.9h.643l2.346 2.86.892.04-2.432-2.932c.307-.034.548-.089.734-.164m-2.183-3.188h.895c.359 0 .666.035.913.105.238.068.434.166.583.284.135.12.237.264.3.432.065.173.101.382.107.61a1.226 1.226 0 0 1-.138.569 1.359 1.359 0 0 1-.354.41c-.15.115-.318.198-.504.247a2.11 2.11 0 0 1-.568.08h-1.234v-2.737zM110.815 102.32a3.65 3.65 0 0 0-1.136-.77c-.868-.377-2.002-.377-2.867 0a3.528 3.528 0 0 0-1.127.77 3.466 3.466 0 0 0-.755 1.143 3.677 3.677 0 0 0-.266 1.399c0 .497.089.966.266 1.395.177.431.431.812.754 1.134.316.333.696.594 1.129.779.433.185.915.278 1.432.278.517 0 .997-.093 1.433-.278a3.49 3.49 0 0 0 1.138-.778 3.58 3.58 0 0 0 1.02-2.53 3.62 3.62 0 0 0-1.02-2.542m.375 2.542a3 3 0 0 1-.22 1.143 2.868 2.868 0 0 1-1.543 1.565c-.707.305-1.638.311-2.356 0a2.84 2.84 0 0 1-1.54-1.565 2.972 2.972 0 0 1-.223-1.143 2.974 2.974 0 0 1 .835-2.084 2.86 2.86 0 0 1 .928-.633 2.95 2.95 0 0 1 1.173-.233c.428 0 .826.079 1.183.233a2.867 2.867 0 0 1 1.543 1.569c.146.354.22.74.22 1.148M116.656 105.263h2.184v.83c0 .239-.066.464-.198.663a2.06 2.06 0 0 1-.53.546c-.22.157-.472.28-.746.367-.276.09-.562.133-.85.133h-.132a2.97 2.97 0 0 1-1.183-.232 2.94 2.94 0 0 1-.928-.63 2.876 2.876 0 0 1-.613-.935 3 3 0 0 1-.222-1.143c0-.407.075-.795.222-1.154a2.93 2.93 0 0 1 .613-.936c.261-.26.573-.473.928-.627.722-.312 1.662-.31 2.394.01.37.163.704.394.99.69l.085.085.43-.464-.076-.078a3.775 3.775 0 0 0-1.183-.82c-.898-.4-2.022-.393-2.89-.024-.43.185-.816.444-1.14.768a3.736 3.736 0 0 0-.741 1.15 3.7 3.7 0 0 0-.265 1.4c0 .489.089.955.265 1.385.178.427.427.813.744 1.145.321.332.708.593 1.137.778.435.185.916.279 1.433.279h.013c.49 0 .939-.073 1.323-.216.384-.143.709-.326.968-.54a2.36 2.36 0 0 0 .592-.73c.135-.268.203-.527.203-.771v-1.576h-2.827v.647zM124.058 105.221c.224-.09.395-.18.518-.268.206-.162.383-.367.526-.608.145-.249.215-.545.208-.875a2.155 2.155 0 0 0-.151-.87 1.726 1.726 0 0 0-.497-.673 2.422 2.422 0 0 0-.804-.397 3.825 3.825 0 0 0-1.088-.143h-1.54v6.93h.646v-2.9h.643l2.346 2.86.892.04-2.43-2.932c.304-.034.544-.089.731-.164m-2.182-3.188h.894c.36 0 .667.035.913.105.239.068.435.166.582.284.137.12.239.264.303.432.062.173.1.382.106.61a1.233 1.233 0 0 1-.138.569 1.33 1.33 0 0 1-.354.41c-.149.115-.32.198-.504.247-.189.054-.38.08-.566.08h-1.236v-2.737zM127.735 104.944h2.842v-.646h-2.842v-2.265h3.444v-.646h-4.09v6.93h4.364v-.648h-3.718zM136.338 105.44a2.795 2.795 0 0 0-.595-.53 5.451 5.451 0 0 0-.981-.506 5.195 5.195 0 0 1-.791-.39c-.21-.131-.378-.26-.501-.382a1.358 1.358 0 0 1-.264-.337.665.665 0 0 1-.076-.278c0-.078.017-.19.048-.326a.993.993 0 0 1 .187-.385c.097-.124.236-.236.419-.33.18-.093.422-.14.726-.14.41 0 .742.093.984.278.242.186.428.472.552.851l.055.166.518-.467-.028-.075c-.178-.435-.436-.781-.774-1.026-.342-.249-.782-.374-1.307-.374-.366 0-.68.056-.935.17a1.678 1.678 0 0 0-.973 1.035 2.01 2.01 0 0 0-.105.623c0 .167.028.332.082.498.057.169.161.337.31.501.144.162.35.324.612.487.255.16.595.326 1.01.487.372.151.667.297.878.435.208.135.366.27.469.399.098.124.159.239.18.342.024.113.036.22.036.322 0 .1-.021.226-.06.376a1.18 1.18 0 0 1-.233.424 1.395 1.395 0 0 1-.481.356c-.207.097-.483.147-.824.147-.409 0-.759-.118-1.04-.352-.289-.24-.52-.55-.687-.92l-.069-.152-.48.482.033.073c.204.432.501.796.88 1.08.384.289.844.435 1.363.435.434 0 .798-.07 1.082-.209.284-.138.513-.31.685-.513.169-.202.292-.416.362-.637a2.02 2.02 0 0 0 .103-.59c0-.164-.023-.335-.076-.509-.05-.178-.15-.359-.294-.54M142.282 105.979a1.572 1.572 0 0 0-.294-.54 2.849 2.849 0 0 0-.594-.53 5.468 5.468 0 0 0-.982-.504c-.317-.13-.58-.26-.79-.392a2.918 2.918 0 0 1-.501-.38 1.28 1.28 0 0 1-.262-.337.603.603 0 0 1-.078-.279c0-.079.017-.189.048-.327.03-.129.093-.26.186-.385.096-.124.237-.235.417-.33.181-.093.427-.139.729-.139.41 0 .74.094.983.279.242.186.43.471.553.85l.053.167.522-.468-.03-.075c-.178-.435-.438-.781-.774-1.027-.342-.248-.78-.374-1.307-.374-.367 0-.681.058-.937.17-.252.111-.464.26-.624.44-.16.179-.278.38-.349.596a2.056 2.056 0 0 0-.102.623 1.42 1.42 0 0 0 .39 1c.145.16.352.324.611.487.258.159.597.324 1.01.486.372.15.669.297.88.435.208.136.365.27.468.399.097.123.157.239.18.342.024.113.036.22.036.322 0 .1-.022.226-.063.376a1.107 1.107 0 0 1-.228.424 1.396 1.396 0 0 1-.482.356c-.207.097-.484.147-.823.147-.412 0-.761-.119-1.042-.353a2.517 2.517 0 0 1-.687-.919l-.068-.152-.482.482.034.073c.206.432.5.796.88 1.081.385.287.843.435 1.365.435.432 0 .795-.07 1.08-.21a2.03 2.03 0 0 0 .685-.513c.17-.2.292-.417.36-.637.071-.22.107-.418.107-.59 0-.164-.027-.335-.078-.51M89.442 104.575a1.141 1.141 0 1 1-2.283 0 1.141 1.141 0 1 1 2.283 0"/></g></g></symbol><symbol viewBox="-8 450 1006 125" id="mason-half-dark"><path opacity=".8" fill="#FD4722" d="M584.7 572.4c0-13.8 2.4-26.6 7.3-38.6s11.6-22.5 20.2-31.5 18.8-16.1 30.7-21.3 24.8-7.8 38.7-7.8c14.2 0 27.2 2.6 39.1 7.8 11.9 5.2 22.1 12.3 30.7 21.3 8.6 9 15.3 19.5 20.2 31.5s7.3 24.8 7.3 38.6v1.8h13.3v-1.8c0-15.6-2.8-30.3-8.4-43.9-5.6-13.6-13.3-25.5-23-35.7-10-10.2-21.7-18.3-35.1-24.2-13.4-5.9-28.1-8.9-44.1-8.9-16.1 0-30.8 3-44.1 8.9-13.4 5.9-24.9 14-34.7 24.2-10 10.2-17.8 22.1-23.2 35.7-5.5 13.6-8.2 28.3-8.2 43.9v1.8h13.3v-1.8"/><path fill="#020203" d="M8.6 504.1l28 70.1h13.5L1.3 451.5l-8.4 122.7H4.7C6 550.4 7.3 527 8.6 504.1M121 574.2h13.5l27.3-67.9 3.8 67.9h12.6l-8-122.7zM484.2 561c-10.2-4.3-18.8-8.6-25.6-13-6.9-4.4-12.4-8.7-16.6-12.8-4.2-4.1-7.2-8.1-9.1-11.9s-2.8-7.3-2.8-10.7c0-2.9.5-6.6 1.6-11.4 1.1-4.7 3.3-9.4 6.6-13.9 3.4-4.5 8.2-8.4 14.5-11.7 6.3-3.3 14.5-5 24.8-5 14 0 25.1 3.3 33.5 9.8 8.4 6.5 14.7 16.3 18.8 29.3l10.5-9.6c-5.4-13.4-13.2-23.9-23.4-31.5s-23.4-11.4-39.4-11.4c-11.2 0-20.6 1.7-28.3 5.2-7.7 3.5-13.9 7.9-18.7 13.3-4.8 5.4-8.2 11.4-10.3 17.9-2.1 6.5-3.1 12.9-3.1 19 0 5 .8 9.9 2.4 14.9s4.6 10 9.1 14.9c4.4 5 10.6 10 18.7 15.1 8 5.1 18.6 10.3 31.6 15.5.9.4 1.7.7 2.5 1.1h28.9c-7.1-4.4-15.8-8.8-26.2-13.1M826.5 574.2h13.3v-84.3l63.8 84.3h16.6l-93.7-123.4zM984.2 463.6h12.9v110.6h-12.9zM249.6 574.2h12.5l37.7-92.2 38.4 92.2h12l-50.4-122z"/></symbol><symbol viewBox="-8 450 1006 125" id="mason-half-white"><path opacity=".8" fill="#FD4722" d="M584.7 572.4c0-13.8 2.4-26.6 7.3-38.6s11.6-22.5 20.2-31.5 18.8-16.1 30.7-21.3 24.8-7.8 38.7-7.8c14.2 0 27.2 2.6 39.1 7.8 11.9 5.2 22.1 12.3 30.7 21.3 8.6 9 15.3 19.5 20.2 31.5s7.3 24.8 7.3 38.6v1.8h13.3v-1.8c0-15.6-2.8-30.3-8.4-43.9-5.6-13.6-13.3-25.5-23-35.7-10-10.2-21.7-18.3-35.1-24.2-13.4-5.9-28.1-8.9-44.1-8.9-16.1 0-30.8 3-44.1 8.9-13.4 5.9-24.9 14-34.7 24.2-10 10.2-17.8 22.1-23.2 35.7-5.5 13.6-8.2 28.3-8.2 43.9v1.8h13.3v-1.8"/><path fill="#FFF" d="M8.6 504.1l28 70.1h13.5L1.3 451.5l-8.4 122.7H4.7C6 550.4 7.3 527 8.6 504.1M121 574.2h13.5l27.3-67.9 3.8 67.9h12.6l-8-122.7zM484.2 561c-10.2-4.3-18.8-8.6-25.6-13-6.9-4.4-12.4-8.7-16.6-12.8-4.2-4.1-7.2-8.1-9.1-11.9s-2.8-7.3-2.8-10.7c0-2.9.5-6.6 1.6-11.4 1.1-4.7 3.3-9.4 6.6-13.9 3.4-4.5 8.2-8.4 14.5-11.7 6.3-3.3 14.5-5 24.8-5 14 0 25.1 3.3 33.5 9.8 8.4 6.5 14.7 16.3 18.8 29.3l10.5-9.6c-5.4-13.4-13.2-23.9-23.4-31.5s-23.4-11.4-39.4-11.4c-11.2 0-20.6 1.7-28.3 5.2-7.7 3.5-13.9 7.9-18.7 13.3-4.8 5.4-8.2 11.4-10.3 17.9-2.1 6.5-3.1 12.9-3.1 19 0 5 .8 9.9 2.4 14.9s4.6 10 9.1 14.9c4.4 5 10.6 10 18.7 15.1 8 5.1 18.6 10.3 31.6 15.5.9.4 1.7.7 2.5 1.1h28.9c-7.1-4.4-15.8-8.8-26.2-13.1M826.5 574.2h13.3v-84.3l63.8 84.3h16.6l-93.7-123.4zM984.2 463.6h12.9v110.6h-12.9zM249.6 574.2h12.5l37.7-92.2 38.4 92.2h12l-50.4-122z"/></symbol><symbol viewBox="-679 756 200 49" id="mason-logo-white"><g fill="#FFF"><path d="M-658.467 803.801l14.955-36.24 1.918 33.194h2.66l-2.933-43.625-16.6 40.305-16.46-40.305-3.073 43.625h2.59c.321-5.463.643-11.065.96-16.802.32-5.73.639-11.33.958-16.795l15.025 36.643M-569.166 787.244c-.297-1.025-.866-2.05-1.706-3.086-.846-1.038-2.026-2.078-3.555-3.114-1.522-1.038-3.512-2.058-5.975-3.047-2.004-.814-3.675-1.638-5.02-2.472-1.343-.842-2.426-1.654-3.24-2.445-.825-.785-1.414-1.545-1.78-2.269-.362-.723-.548-1.4-.548-2.029 0-.546.104-1.268.309-2.171.207-.902.64-1.784 1.296-2.643.662-.854 1.61-1.599 2.838-2.227 1.227-.642 2.845-.957 4.85-.957 2.735 0 4.914.624 6.555 1.865 1.641 1.244 2.866 3.107 3.69 5.587l2.047-1.83c-1.044-2.568-2.571-4.577-4.577-6.023-2.004-1.447-4.574-2.173-7.714-2.173-2.188 0-4.033.333-5.534.984-1.505.654-2.723 1.508-3.656 2.547-.935 1.032-1.603 2.172-2.01 3.416-.417 1.243-.615 2.45-.615 3.625 0 .95.155 1.894.476 2.841.318.95.91 1.9 1.776 2.85.865.95 2.08 1.905 3.65 2.875 1.573.97 3.632 1.954 6.185 2.95 2.366.951 4.235 1.859 5.598 2.74 1.367.88 2.387 1.755 3.075 2.617.685.853 1.102 1.652 1.265 2.396.16.752.239 1.462.239 2.136 0 .68-.136 1.518-.412 2.502-.27.996-.794 1.96-1.572 2.89-.77.922-1.852 1.712-3.242 2.369-1.391.649-3.198.976-5.429.976-2.734 0-5.044-.772-6.93-2.335-1.897-1.558-3.386-3.533-4.48-5.922l-1.912 1.891c1.232 2.576 2.979 4.713 5.258 6.407 2.278 1.687 4.967 2.54 8.064 2.54 2.592 0 4.732-.415 6.42-1.221 1.683-.814 3.03-1.811 4.03-2.978 1.003-1.182 1.705-2.41 2.116-3.696.411-1.29.614-2.424.614-3.423 0-.948-.148-1.932-.444-2.943zM-521.729 771.794c-1.093-2.593-2.598-4.862-4.512-6.81-1.958-1.939-4.242-3.474-6.86-4.61-2.622-1.126-5.499-1.686-8.64-1.686-3.143 0-6.024.56-8.64 1.687-2.623 1.135-4.885 2.67-6.795 4.61a20.475 20.475 0 0 0-4.545 6.81c-1.072 2.595-1.607 5.388-1.607 8.366 0 2.986.535 5.76 1.607 8.335a20.466 20.466 0 0 0 4.545 6.775c1.91 1.987 4.172 3.532 6.795 4.636 2.616 1.107 5.497 1.661 8.64 1.661 3.141 0 6.018-.554 8.64-1.661a20.969 20.969 0 0 0 6.86-4.636c1.914-1.94 3.419-4.202 4.512-6.775 1.091-2.575 1.635-5.349 1.635-8.335 0-2.978-.544-5.77-1.635-8.367zm-2.391 15.683c-.96 2.301-2.281 4.303-3.964 5.998-1.686 1.693-3.687 3.038-6.01 4.03-2.325.989-4.872 1.489-7.647 1.489-2.735 0-5.262-.5-7.583-1.49-2.32-.99-4.326-2.336-6.011-4.029-1.687-1.695-3.006-3.697-3.962-5.998-.955-2.301-1.43-4.741-1.43-7.316 0-2.622.475-5.067 1.43-7.349.956-2.28 2.275-4.282 3.962-5.996 1.685-1.715 3.69-3.068 6.01-4.065 2.322-.997 4.85-1.494 7.584-1.494 2.775 0 5.322.497 7.647 1.494 2.323.997 4.324 2.35 6.01 4.065 1.683 1.714 3.003 3.717 3.964 5.996.955 2.282 1.433 4.727 1.433 7.35 0 2.574-.478 5.014-1.433 7.315zM-480 804.006v-44.574h-2.529v37.129l-30.866-39.567v43.761h2.592v-36.31L-480 804.005M-634.887 800.755H-598.045l-18.454-43.502-18.388 43.502zm3.394-2.117l14.994-35.709 15.276 35.71h-30.27z"/></g></symbol><symbol viewBox="0 0 110 28" id="mason-white"><path fill="#FFF" d="M11.726 23.263L2.761 1.343 1.088 25.068H2.5c.176-2.972.35-6.019.523-9.139.174-3.117.347-6.162.521-9.135l8.183 19.931 8.145-19.712 1.043 18.055h1.451L20.766 1.342l-9.04 21.921z"/><path fill="none" stroke="#FFF" stroke-width=".25" stroke-miterlimit="10" d="M11.726 23.263L2.761 1.343 1.088 25.068H2.5c.176-2.972.35-6.019.523-9.139.174-3.117.347-6.162.521-9.135l8.183 19.931 8.145-19.712 1.043 18.055h1.451L20.766 1.342l-9.04 21.921z"/><path fill="#FFF" d="M59.432 16.042c-.461-.565-1.104-1.13-1.936-1.694-.83-.564-1.914-1.12-3.254-1.657-1.093-.442-2.003-.891-2.735-1.344-.732-.458-1.321-.9-1.764-1.33-.45-.428-.771-.841-.97-1.234-.197-.394-.297-.761-.297-1.104 0-.297.056-.69.167-1.181.113-.49.35-.97.706-1.437.36-.465.877-.87 1.545-1.211.669-.35 1.55-.521 2.642-.521 1.49 0 2.677.339 3.57 1.015.894.676 1.562 1.69 2.01 3.038l1.113-.995c-.567-1.397-1.4-2.49-2.491-3.276-1.091-.788-2.492-1.182-4.202-1.182-1.191 0-2.196.182-3.013.535-.82.356-1.482.82-1.991 1.386a5.137 5.137 0 0 0-1.096 1.858 6.213 6.213 0 0 0-.334 1.97c0 .518.085 1.03.26 1.546.172.517.494 1.034.966 1.55.47.517 1.135 1.036 1.989 1.564.856.528 1.978 1.063 3.367 1.605 1.29.517 2.308 1.01 3.05 1.49.744.479 1.3.955 1.674 1.423.373.464.6.898.689 1.303.086.41.13.795.13 1.163 0 .369-.074.825-.225 1.36-.147.542-.432 1.066-.856 1.57-.42.503-1.01.934-1.765 1.29-.757.353-1.742.532-2.957.532-1.49 0-2.747-.421-3.774-1.271-1.033-.847-1.843-1.921-2.44-3.221L46.17 20.61a9.25 9.25 0 0 0 2.864 3.485c1.24.917 2.705 1.38 4.39 1.38 1.413 0 2.579-.225 3.497-.663.918-.443 1.65-.985 2.196-1.62.546-.643.928-1.311 1.15-2.01.226-.702.336-1.318.336-1.861 0-.516-.08-1.052-.241-1.601-.162-.558-.473-1.115-.93-1.68"/><path fill="none" stroke="#FFF" stroke-width=".25" stroke-miterlimit="10" d="M59.432 16.042c-.461-.565-1.104-1.13-1.936-1.694-.83-.564-1.914-1.12-3.254-1.657-1.093-.442-2.003-.891-2.735-1.344-.732-.458-1.321-.9-1.764-1.33-.45-.428-.771-.841-.97-1.234-.197-.394-.297-.761-.297-1.104 0-.297.056-.69.167-1.181.113-.49.35-.97.706-1.437.36-.465.877-.87 1.545-1.211.669-.35 1.55-.521 2.642-.521 1.49 0 2.677.339 3.57 1.015.894.676 1.562 1.69 2.01 3.038l1.113-.995c-.567-1.397-1.4-2.49-2.491-3.276-1.091-.788-2.492-1.182-4.202-1.182-1.191 0-2.196.182-3.013.535-.82.356-1.482.82-1.991 1.386a5.137 5.137 0 0 0-1.096 1.858 6.213 6.213 0 0 0-.334 1.97c0 .518.085 1.03.26 1.546.172.517.494 1.034.966 1.55.47.517 1.135 1.036 1.989 1.564.856.528 1.978 1.063 3.367 1.605 1.29.517 2.308 1.01 3.05 1.49.744.479 1.3.955 1.674 1.423.373.464.6.898.689 1.303.086.41.13.795.13 1.163 0 .369-.074.825-.225 1.36-.147.542-.432 1.066-.856 1.57-.42.503-1.01.934-1.765 1.29-.757.353-1.742.532-2.957.532-1.49 0-2.747-.421-3.774-1.271-1.033-.847-1.843-1.921-2.44-3.221L46.17 20.61a9.25 9.25 0 0 0 2.864 3.485c1.24.917 2.705 1.38 4.39 1.38 1.413 0 2.579-.225 3.497-.663.918-.443 1.65-.985 2.196-1.62.546-.643.928-1.311 1.15-2.01.226-.702.336-1.318.336-1.861 0-.516-.08-1.052-.241-1.601-.162-.558-.473-1.115-.93-1.68z"/><path fill="#FFF" d="M84.891 17.847a10.064 10.064 0 0 1-2.156 3.262c-.92.921-2.01 1.653-3.274 2.192-1.266.538-2.653.81-4.166.81-1.489 0-2.866-.272-4.129-.81a10.226 10.226 0 0 1-3.273-2.192 9.99 9.99 0 0 1-2.158-3.262 10.268 10.268 0 0 1-.78-3.978c0-1.427.26-2.757.78-3.998a10.233 10.233 0 0 1 2.158-3.26c.917-.934 2.01-1.669 3.273-2.212 1.263-.543 2.64-.813 4.13-.813 1.512 0 2.9.27 4.165.813a10.183 10.183 0 0 1 3.274 2.211 10.311 10.311 0 0 1 2.156 3.261c.522 1.241.782 2.571.782 3.998 0 1.4-.26 2.726-.782 3.978M83.738 5.614A12.08 12.08 0 0 0 80 3.106c-1.427-.613-2.994-.917-4.705-.917-1.71 0-3.279.304-4.704.917a11.62 11.62 0 0 0-3.702 2.508 11.13 11.13 0 0 0-2.474 3.704c-.584 1.412-.875 2.931-.875 4.551 0 1.623.291 3.132.875 4.532.581 1.4 1.407 2.63 2.474 3.685a10.997 10.997 0 0 0 3.702 2.522c1.425.603 2.994.903 4.704.903 1.711 0 3.278-.3 4.705-.903a11.412 11.412 0 0 0 3.738-2.522 11.71 11.71 0 0 0 2.456-3.685c.596-1.4.891-2.909.891-4.532 0-1.62-.295-3.139-.89-4.55a11.705 11.705 0 0 0-2.457-3.705"/><path fill="none" stroke="#FFF" stroke-width=".25" stroke-miterlimit="10" d="M84.891 17.847a10.064 10.064 0 0 1-2.156 3.262c-.92.921-2.01 1.653-3.274 2.192-1.266.538-2.653.81-4.166.81-1.489 0-2.866-.272-4.129-.81a10.226 10.226 0 0 1-3.273-2.192 9.99 9.99 0 0 1-2.158-3.262 10.268 10.268 0 0 1-.78-3.978c0-1.427.26-2.757.78-3.998a10.233 10.233 0 0 1 2.158-3.26c.917-.934 2.01-1.669 3.273-2.212 1.263-.543 2.64-.813 4.13-.813 1.512 0 2.9.27 4.165.813a10.183 10.183 0 0 1 3.274 2.211 10.311 10.311 0 0 1 2.156 3.261c.522 1.241.782 2.571.782 3.998 0 1.4-.26 2.726-.782 3.978zM83.738 5.614A12.08 12.08 0 0 0 80 3.106c-1.427-.613-2.994-.917-4.705-.917-1.71 0-3.279.304-4.704.917a11.62 11.62 0 0 0-3.702 2.508 11.13 11.13 0 0 0-2.474 3.704c-.584 1.412-.875 2.931-.875 4.551 0 1.623.291 3.132.875 4.532.581 1.4 1.407 2.63 2.474 3.685a10.997 10.997 0 0 0 3.702 2.522c1.425.603 2.994.903 4.704.903 1.711 0 3.278-.3 4.705-.903a11.412 11.412 0 0 0 3.738-2.522 11.71 11.71 0 0 0 2.456-3.685c.596-1.4.891-2.909.891-4.532 0-1.62-.295-3.139-.89-4.55a11.705 11.705 0 0 0-2.457-3.705z"/><path fill="#FFF" d="M90.733 25.069h1.412V5.319l16.777 21.518V2.594h-1.38v20.194l-16.81-21.52z"/><path fill="none" stroke="#FFF" stroke-width=".25" stroke-miterlimit="10" d="M107.543 2.594v20.194l-16.81-21.52v23.801h1.412V5.32l16.776 21.517V2.594z"/><path fill="#FFF" d="M26.416 23.918l8.165-19.422 8.32 19.422H26.416zm-1.848 1.151h20.064L34.582 1.41 24.567 25.07z"/><path fill="none" stroke="#FFF" stroke-width=".25" stroke-miterlimit="10" d="M26.416 23.918l8.165-19.422 8.32 19.422H26.416zm-1.848 1.151h20.064L34.582 1.41 24.567 25.07z"/></symbol><symbol viewBox="0 0 13 13" id="plus"><path fill="currentColor" d="M5 1h3v11H5z"/><path fill="currentColor" d="M1 5h11v3H1z"/></symbol><symbol viewBox="0 0 13 13" id="plus-white"><g fill="#FFF"><path d="M5 1h3v11H5z"/><path d="M1 5h11v3H1z"/></g></symbol><symbol viewBox="0 0 92 107" id="rdd-white"><g fill="#FFF"><path d="M3.521 17.001h2.804l9.52 11.593 3.21.12-9.8-11.81c1.326-.135 2.393-.362 3.175-.68.907-.37 1.577-.716 2.05-1.065a8.398 8.398 0 0 0 2.097-2.421c.578-.984.853-2.154.822-3.463.03-1.25-.17-2.411-.6-3.459a6.745 6.745 0 0 0-1.962-2.663c-.856-.672-1.938-1.205-3.211-1.585C10.357 1.191 8.893 1 7.276 1h-6.09v27.713H3.52V17.001zm0-13.662h3.755c1.47 0 2.722.146 3.723.431.988.283 1.798.68 2.404 1.175a4.34 4.34 0 0 1 1.258 1.796c.268.717.418 1.57.446 2.516-.028.92-.224 1.715-.58 2.36a5.538 5.538 0 0 1-1.465 1.697 5.974 5.974 0 0 1-2.083 1.03 8.945 8.945 0 0 1-2.328.32H3.52V3.34zM28.628 1h2.338v27.713h-2.338zM54.257 27.9a13.674 13.674 0 0 0 4.61-2.522c1.362-1.137 2.478-2.6 3.32-4.346.846-1.755 1.274-3.848 1.274-6.22s-.42-4.457-1.253-6.195c-.828-1.738-1.915-3.183-3.23-4.299a13.223 13.223 0 0 0-4.474-2.505A16.073 16.073 0 0 0 49.524 1h-7.507v27.713h7.108c1.711 0 3.438-.272 5.132-.813zM49.125 3.34c1.76 0 3.395.262 4.857.78 1.454.511 2.73 1.273 3.79 2.26 1.051.98 1.884 2.196 2.47 3.61.586 1.425.884 3.048.884 4.822 0 1.779-.298 3.407-.884 4.844-.586 1.425-1.416 2.648-2.47 3.635-1.062.988-2.339 1.755-3.793 2.283-1.462.53-3.094.8-4.854.8H44.31V3.339h4.816zM90.817 26.374h-15.03V15.095H87.27v-2.34H75.788V3.34h13.92V1H73.45v27.713h17.367zM9.815 65.71a9.75 9.75 0 0 0 3.285-1.799c.973-.808 1.77-1.852 2.369-3.098.603-1.252.909-2.743.909-4.432 0-1.695-.3-3.18-.894-4.414-.588-1.233-1.363-2.265-2.303-3.07a9.469 9.469 0 0 0-3.193-1.782 11.367 11.367 0 0 0-3.543-.581H1.05v19.755h5.113c1.215 0 2.443-.194 3.653-.579zM6.162 48.377c1.23 0 2.372.183 3.395.545 1.022.36 1.91.892 2.644 1.577a7.132 7.132 0 0 1 1.72 2.515c.407.99.616 2.12.616 3.367 0 1.246-.21 2.385-.617 3.381-.41 1-.988 1.85-1.719 2.531-.733.688-1.625 1.223-2.646 1.595-1.024.37-2.165.559-3.393.559H2.86v-16.07h3.303zM21.668 58.022h1.836l6.69 8.147 2.545.12-6.935-8.356c.863-.097 1.563-.255 2.09-.466.653-.266 1.131-.515 1.473-.768a6.14 6.14 0 0 0 1.502-1.735c.415-.708.614-1.552.594-2.49.02-.9-.125-1.733-.433-2.482a4.852 4.852 0 0 0-1.414-1.916c-.621-.484-1.393-.867-2.3-1.137-.906-.267-1.948-.405-3.096-.405h-4.394v19.755h1.842v-8.267zm0-9.645h2.552c1.029 0 1.905.101 2.602.3.683.196 1.243.472 1.66.81.4.345.681.747.862 1.231.186.497.29 1.089.308 1.738-.018.632-.153 1.178-.397 1.621-.25.451-.591.846-1.009 1.17-.42.324-.904.563-1.434.708-.55.15-1.095.225-1.622.225h-3.522v-7.803zM35.818 46.534h1.841v19.755h-1.841zM42.277 46.534h-2.02l8.934 21.694 8.907-21.694h-2.053l-6.823 16.814zM71.675 48.377v-1.843H60.008v19.755h12.448v-1.842H61.85v-7.77h8.104v-1.843h-8.104v-6.457zM90.954 46.534h-1.81v16.531L74.997 44.778v21.51h1.842V50.136l14.114 18.287z"/><g><path d="M13.133 86.475a9.474 9.474 0 0 0-3.193-1.782 11.369 11.369 0 0 0-3.543-.58H1v19.754h5.114c1.215 0 2.443-.194 3.652-.579a9.752 9.752 0 0 0 3.286-1.799c.973-.807 1.77-1.852 2.368-3.098.604-1.252.91-2.742.91-4.432 0-1.695-.301-3.18-.892-4.414-.59-1.233-1.365-2.265-2.305-3.07zm-10.322-.52h3.303c1.23 0 2.371.183 3.395.545 1.021.36 1.91.892 2.644 1.577a7.129 7.129 0 0 1 1.719 2.516c.41.988.616 2.12.616 3.366s-.209 2.385-.616 3.382c-.41.998-.988 1.85-1.72 2.53-.733.688-1.624 1.223-2.645 1.595-1.024.37-2.165.559-3.393.559H2.811v-16.07zM21.023 94.255h8.104v-1.843h-8.104v-6.457h9.826v-1.843H19.182v19.755H31.63v-1.842H21.023zM44 95.664c-.404-.5-.975-1.007-1.698-1.506-.713-.487-1.655-.974-2.799-1.443-.889-.361-1.645-.736-2.249-1.113-.6-.38-1.082-.744-1.434-1.088-.346-.34-.6-.663-.748-.959-.146-.287-.217-.555-.217-.795 0-.216.046-.53.133-.93.084-.37.264-.739.537-1.093.27-.357.672-.675 1.19-.943.511-.268 1.207-.403 2.07-.403 1.171 0 2.116.268 2.807.795.695.528 1.224 1.346 1.579 2.427l.157.476 1.478-1.335-.084-.212c-.5-1.238-1.24-2.222-2.209-2.93-.97-.706-2.225-1.063-3.728-1.063-1.04 0-1.936.16-2.667.482-.728.32-1.33.744-1.785 1.256a4.838 4.838 0 0 0-.99 1.697 5.706 5.706 0 0 0-.296 1.776c0 .477.079.953.234 1.417.16.482.456.964.881 1.432.415.459 1.004.925 1.742 1.39.731.455 1.704.924 2.886 1.388 1.06.428 1.905.846 2.511 1.239.588.382 1.037.764 1.33 1.136.28.352.453.68.514.976.066.316.102.624.102.918 0 .288-.059.647-.176 1.073-.11.41-.33.815-.657 1.207-.318.388-.782.73-1.375 1.01-.588.28-1.378.423-2.348.423-1.17 0-2.168-.34-2.967-1.007-.823-.68-1.483-1.562-1.962-2.622l-.196-.428-1.37 1.37.097.21a8.217 8.217 0 0 0 2.511 3.078c1.093.823 2.4 1.24 3.887 1.24 1.23 0 2.269-.2 3.086-.595.803-.39 1.46-.882 1.954-1.46.486-.576.833-1.188 1.029-1.817.198-.627.298-1.193.298-1.682 0-.464-.074-.953-.217-1.45-.145-.505-.428-1.025-.84-1.542zM48.287 84.112h1.841v19.755h-1.841zM63.497 95.162h6.227v2.367c0 .691-.18 1.31-.555 1.888a5.878 5.878 0 0 1-1.513 1.558 7.654 7.654 0 0 1-2.13 1.05 8.101 8.101 0 0 1-2.424.377h-.374c-1.22 0-2.356-.224-3.375-.665a8.295 8.295 0 0 1-2.654-1.792 8.238 8.238 0 0 1-1.744-2.665 8.562 8.562 0 0 1-.632-3.26c0-1.162.214-2.268.632-3.287a8.227 8.227 0 0 1 1.744-2.666 8.312 8.312 0 0 1 2.654-1.794c2.05-.89 4.752-.88 6.828.03a8.95 8.95 0 0 1 2.822 1.963l.24.247 1.227-1.322-.22-.225a10.911 10.911 0 0 0-3.368-2.339c-2.563-1.142-5.767-1.116-8.242-.066a10.263 10.263 0 0 0-3.25 2.189 10.386 10.386 0 0 0-2.116 3.28c-.507 1.233-.762 2.576-.762 3.99 0 1.397.255 2.724.762 3.948a10.444 10.444 0 0 0 2.116 3.264 9.974 9.974 0 0 0 3.25 2.217c1.233.525 2.608.793 4.088.793h.03c1.414 0 2.685-.207 3.777-.615 1.098-.41 2.025-.93 2.753-1.544.741-.62 1.312-1.317 1.694-2.074.387-.765.583-1.504.583-2.2v-4.49h-8.068v1.843zM89.19 84.112v16.531L75.043 82.356v21.511h1.841V87.713L91 106V84.112z"/></g><path d="M1.288 36.468h89.427v2.61H1.288zM1.288 74.1h89.427v2.61H1.288z"/></g></symbol><symbol viewBox="0 0 18 18" id="search-red"><g fill="none" stroke="#fd4722" stroke-miterlimit="10"><path d="M14.28 3.72c-2.261-2.262-5.893-2.311-8.095-.11-2.201 2.202-2.152 5.834.11 8.096s5.893 2.31 8.095.109c2.202-2.201 2.153-5.833-.11-8.095zm-8.466 8.467c-2.534-2.534-2.59-6.603-.122-9.07 2.466-2.467 6.535-2.412 9.07.122 2.534 2.535 2.589 6.603.122 9.07s-6.536 2.412-9.07-.122zM4.34 13.513l.147.147-2.832 2.833-.147-.147z"/></g></symbol><symbol viewBox="0 0 134 49" id="signature-white"><g fill-rule="evenodd" clip-rule="evenodd" fill="#FFF"><path d="M43.904 29.676l-17.362 8.233-.28-.391c.31-.244.585-.555.931-.718 3.9-1.836 7.814-3.64 11.715-5.471a136.77 136.77 0 0 0 5.027-2.47c.401-.21.737-.608 1.008-.987 4.778-6.658 9.552-13.32 14.296-20 .84-1.183 1.543-2.46 2.493-3.99-2.065.29-3.756.541-5.45.766-5.858.779-11.72 1.53-17.574 2.328-3.12.425-6.236.878-9.338 1.41-1.167.201-2.297.633-3.423 1.02-.255.087-.42.425-.634.639-.36.358-.693.96-1.097 1.013-1.049.136-2.131.057-3.196-.008-.181-.012-.49-.391-.474-.58.022-.255.243-.61.474-.712 1.526-.673 3.03-1.46 4.63-1.882 2.346-.617 4.75-1.055 7.155-1.402 5.373-.773 10.76-1.449 16.143-2.154 3.914-.513 7.828-1.023 11.745-1.506.853-.106 1.668-.12 1.952-1.188.065-.24.561-.368.988-.626.14.486.244.84.389 1.34.662-.061 1.353-.14 2.046-.185 5.054-.332 10.105-.733 15.164-.944 1.863-.078 3.746.293 5.62.473.234.022.466.113.692.193 1.764.62 2.222 1.502 1.674 3.246-.119.378-.282.74-.456 1.189.249.134.47.34.712.367 1.977.219 3.283 1.482 4.263 2.982 1.277 1.954 2.471 3.995 2.61 6.44.017.307.338.597.497.86-.275.328-.68.624-.825 1.015-1.026 2.759-3.353 4.183-5.746 5.48-1.035.56-2.23.876-3.391 1.147-1.57.367-3.019.045-4.144-1.206-1.224-1.361-.753-2.88-.166-4.25.603-1.409 1.593-2.65 2.253-4.04.356-.748.376-1.654.478-2.153l-2.019-2.19c-1.659.92-3.464 2.02-5.356 2.948-2.892 1.42-5.848 2.713-8.769 4.076-2.192 1.024-4.36 2.1-6.562 3.104-2.74 1.249-5.524 2.401-8.25 3.679-1.83.858-3.588 1.864-5.384 2.793-.461.238-.924.507-1.418.642-1.862.503-3.03 1.526-3.004 3.591.004.31-.24.623-.637.886v-2.807zm2.265-2.322l.288.228c.333-.127.679-.229.998-.383 2.585-1.254 5.138-2.576 7.751-3.766 5.23-2.38 10.51-4.65 15.732-7.047 2.829-1.297 5.6-2.724 8.355-4.171 1.374-.722 3.07-1.337 3.875-2.505 1.073-1.564 2.52-2.27 3.976-3.192.56-.356.902-1.307.986-2.028.033-.29-.852-.906-1.387-1.004-2.229-.41-4.495-1.008-6.726-.934-5.302.176-10.593.689-15.886 1.095-.3.023-.657.257-.854.5-1.577 1.94-3.178 3.865-4.663 5.872-3.566 4.82-7.078 9.678-10.596 14.533-.656.906-1.235 1.867-1.85 2.802zM91.556 15.77l-.076.336c-1.307-.364-2.609-.752-3.925-1.08-.424-.106-1.157-.242-1.29-.051-1.259 1.817-2.78 3.541-2.757 5.947.012 1.243.527 1.732 1.741 2.033 3.094.765 8.067-2.03 9.454-4.503.459-.817.675-2.046.421-2.921-.513-1.772-1.4-3.443-2.19-5.13-.148-.314-.559-.507-.99-.878-.315.396-.544.953-.806.968-1.573.094-2.28 1.329-3.262 2.224-.855.78-.435 1.233.335 1.592 1.102.516 2.229.979 3.345 1.463zm-.751-7.257c-.984-.88-2.4-.88-3.666-.398-.886.338-2.004 1.14-2.195 1.93-.223.925.26 2.168 1.462 2.833.676-.848 1.245-1.71 1.964-2.422.724-.717 1.597-1.285 2.435-1.943z"/><path d="M58.405 41.124c.151-1.062.554-1.613 1.484-1.954 2.648-.972 5.226-2.129 7.878-3.085 1.512-.545 3.12-.819 4.676-1.248 1.801-.497 3.578-1.087 5.391-1.538 3.34-.832 6.667-1.776 10.055-2.334 4.373-.72 8.795-1.177 13.208-1.622 6.048-.61 12.108-1.1 18.163-1.648.302-.028.598-.112 1.177-.224-3.196-5.38-1.882-10.76-.247-16.474-1.343 1.048-2.33 1.943-3.436 2.653-1.668 1.068-3.37 2.112-5.156 2.962-1.121.534-2.273.004-2.746-1.167-.438-1.086-.608-2.281-.878-3.432-.137-.588-.234-1.184-.35-1.776-.134-.028-.269-.055-.404-.08-.454.792-1.071 1.538-1.324 2.39-.364 1.23-.504 2.53-.668 3.81a9.39 9.39 0 0 1-2.207 4.993c-.251.295-.521.576-.951 1.05-.679-1.837.786-3.3.532-5.018h-4.94l-.02-.21c1.212-.183 2.42-.463 3.64-.524 1.528-.077 1.788-.364 2.392-1.666 1.206-2.6 2.593-5.12 3.95-7.651.13-.241.687-.518.854-.426.335.18.711.577.763.931.233 1.57.405 3.153.51 4.737.183 2.754 1.48 3.012 3.332 2.092 3.033-1.507 5.705-3.492 7.89-6.082.657-.776 1.204-1.643 1.834-2.444.224-.284.545-.495.822-.738.129.06.256.123.384.183-.215.752-.29 1.582-.667 2.24-1.48 2.58-2.438 5.344-3.143 8.207-.625 2.536-.978 5.072.004 7.613.278.72.541 1.455.72 2.205.284 1.196 1.025 1.536 2.191 1.446 2.866-.222 5.738-.378 8.608-.552.393-.025.79-.003 1.17-.003.287 1.312.005 1.68-1.162 1.747-5.836.332-11.676.607-17.503 1.047-5.78.437-11.548 1.022-17.317 1.586-6.253.611-12.471 1.526-18.519 3.223-3.194.896-6.232 2.332-9.36 3.47-1.389.503-2.838.837-4.24 1.307-1.738.585-3.45 1.244-5.185 1.841-.348.12-.744.105-1.205.163zM4.459 42.618l-2.113 3.737.329.4c1.125-.302 2.275-.539 3.372-.92 2.632-.915 5.29-1.781 7.844-2.883 3.608-1.557 7.13-3.313 10.694-4.97.392-.182 2.192-1.05 2.608-1.182.06.126.093.603.152.73-.754.431-2.815 1.366-3.607 1.71-5.27 2.294-10.538 4.595-15.846 6.803-1.872.778-3.846 1.326-5.79 1.92-.313.096-.887-.004-1.038-.22-.149-.214-.016-.76.172-1.041.97-1.458 1.998-2.879 3.006-4.312l.217.228z"/></g></symbol><symbol viewBox="-253 245 22 22" id="skype-dark"><path fill="none" d="M-253 252h22v22h-22z"/><path d="M-232.3 261.023c0 2.989-2.36 5.42-5.259 5.42-1.1 0-2.131-.351-2.985-.947-.474.068-.966.117-1.459.117-4.918 0-8.897-4.101-8.897-9.17 0-.507.047-1.015.113-1.504a5.603 5.603 0 0 1-.92-3.076c0-2.988 2.36-5.42 5.26-5.42 1.1 0 2.132.352 2.985.948.474-.069.966-.118 1.46-.118 4.917 0 8.897 4.102 8.897 9.17 0 .508-.047 1.016-.114 1.504.578.88.92 1.944.92 3.076zm-4.539-2.314c0-2.451-2.757-3.242-4.036-3.535l-1.355-.303c-.986-.234-1.725-.42-1.725-1.182 0-.722.74-1.044 1.867-1.044 2.037 0 2.084 1.533 3.345 1.533.824 0 1.346-.674 1.346-1.465 0-1.524-2.493-2.52-4.947-2.52-2.218 0-4.823.996-4.823 3.702 0 2.246 1.459 3.037 3.326 3.525l1.904.459c1.147.303 1.867.44 1.867 1.299 0 .664-.739 1.2-1.886 1.2-2.387 0-2.52-2.06-3.913-2.06-.9 0-1.298.674-1.298 1.387 0 1.65 2.426 2.988 5.344 2.988 2.558 0 4.984-1.416 4.984-3.984z"/></symbol><symbol viewBox="-96 98 7 5" id="triangle-down-white"><path fill="#FFF" d="M-92.5 102l-2.5-3h5z"/></symbol><symbol viewBox="0 0 16 14" id="triangle-red"><path fill="#fd4722" d="M15.002 12.912H1L8.001 1.119l7 11.793zm-7-8.068L4.307 11.09h7.369L8.001 4.844z"/></symbol><symbol viewBox="-96 98 7 5" id="triangle-up-white"><path fill="#FFF" d="M-92.5 99l-2.5 3h5z"/></symbol><symbol viewBox="-87 91 24 19" id="twitter-dark"><path fill="#020203" d="M-71.146 91.684a4.74 4.74 0 0 1 3.382 1.387c1.095-.24 2.014-.645 2.924-1.06-.372 1.037-1.044 1.788-1.88 2.384.937-.101 2.243-.476 2.911-.834-.379.854-1.865 1.85-2.702 2.489.066 6.899-4.98 12.847-12.257 13.24-.34.018-.67.028-.99.028-3.012 0-6.6-1.244-6.427-1.244 2.586 0 4.732-1.073 6.184-2.293-2.37-.153-3.843-1.64-4.477-3.441.295.069.542.094.787.094.365 0 .725-.055 1.232-.094-2.09-.661-3.553-1.92-3.69-4.437.611.214 1.215.434 1.95.53-.92-.777-2.104-2.345-1.88-4.302.07-.625-.078-.626.215-1.157 2.223 2.455 5.885 4.544 10.354 4.862-.645-3.183 1.613-6.152 4.364-6.152"/></symbol><symbol viewBox="-253 245 22 22" id="vimeo-dark"><path fill="none" d="M-253 252h22v22h-22z"/><path d="M-235.133 247.693c1.62 0 2.833 1.338 2.833 3.38 0 5.37-7.684 14.12-10.29 14.12-2.246 0-3.07-2.5-3.459-3.75l-2.426-7.92c-.313-.996-.805-1.25-2.425 0l-.806-1.015s3.639-4.815 6.064-4.815 2.512 3.75 2.833 5.83c.313 2.11.939 5.42 1.754 5.42.805 0 3.098-3.75 3.098-5.42 0-1.25-.814-2.08-2.426-1.25.806-3.33 3.639-4.58 5.25-4.58z"/></symbol></svg>